<svg xmlns="http://www.w3.org/2000/svg" width="52.03" height="50.53" viewBox="0 0 52.03 50.53"><defs><style>.baae79c1-2cf0-49df-aff9-d3bb4e492d71{fill:#f68712;}</style></defs><title>beaker</title><g id="446ca093-4388-41c4-a28b-7d5a293b6fd7" data-name="Layer 2"><g id="f1efbe76-9f44-4d4d-9cbe-f3992d5cc54e" data-name="svg8"><g id="0eb06829-8fc7-499c-b454-c5a6c7d3ed49" data-name="g10370"><g id="2d6ee709-b2ab-4650-ba73-2d95bd8705f8" data-name="g10310"><path id="166c7396-11f2-4786-933e-9ea2533ff981" data-name="path10300" class="baae79c1-2cf0-49df-aff9-d3bb4e492d71" d="M40.28,14.22a3,3,0,0,0-4.41,4l-3.65,3.65L30.65,19V5.75a3,3,0,0,0-1-5.75H14.4a3,3,0,0,0-1,5.75V19L1,41.25A6,6,0,0,0,6,50.53H38a6,6,0,0,0,5.08-9.28L39.6,35l6.56-6.56a3,3,0,0,0,4-4.41Zm-5,18.87a2.2,2.2,0,0,0-.62,1.86h-13a3.73,3.73,0,1,0-7,0H9.53l8-14.28a2.21,2.21,0,0,0,.28-1.08V5.93h8.44V19.59a2.21,2.21,0,0,0,.28,1.08l3.27,5.85a2.21,2.21,0,0,0,3.49.48L39,21.3,43,25.35Z"/><circle id="99b39420-eebd-45fe-b31a-b7d9ae34d6f3" data-name="circle10302" class="baae79c1-2cf0-49df-aff9-d3bb4e492d71" cx="46.61" cy="8.63" r="3.73"/><circle id="50f41571-5aab-463a-a8c7-51ace6b1c16d" data-name="circle10304" class="baae79c1-2cf0-49df-aff9-d3bb4e492d71" cx="49.32" cy="17.39" r="2.71"/><circle id="b5c1668b-2526-4a55-ad85-007c271c1ffc" data-name="circle10306" class="baae79c1-2cf0-49df-aff9-d3bb4e492d71" cx="24.86" cy="28.36" r="2.71"/><circle id="16cd6dd1-cc79-4f3e-bfa7-5ab46a61720b" data-name="circle10308" class="baae79c1-2cf0-49df-aff9-d3bb4e492d71" cx="21.86" cy="20.1" r="2.06"/></g></g></g></g></svg>