<svg xmlns="http://www.w3.org/2000/svg" width="84.18" height="99.7" viewBox="0 0 84.18 99.7"><defs><style>.b15a3087-2106-462e-af6e-86f220a65e08{fill:none;}.\32 364d11d-5a26-4925-b537-ec608542799b,.b15a3087-2106-462e-af6e-86f220a65e08{stroke:#606060;}.b15a3087-2106-462e-af6e-86f220a65e08,.b455284b-e7b9-4db1-904c-8d047041545f{stroke-width:1.72px;}.b455284b-e7b9-4db1-904c-8d047041545f{fill:#606060;stroke:#666;}.\32 364d11d-5a26-4925-b537-ec608542799b{isolation:isolate;font-size:9.4px;font-family:ArialMT, Arial;}</style></defs><title>chemicalBond</title><g id="69b9abeb-6f6b-4adb-b177-78ef794775ef" data-name="Layer 2"><g id="7f075818-9424-4237-8703-c77dd7b993e1" data-name="svg8"><polygon id="3846b3ed-6f33-4f5c-9145-8bb582e55384" data-name="polygon10058" class="b15a3087-2106-462e-af6e-86f220a65e08" points="0.94 64.12 12.51 53.71 27.3 58.53 30.52 73.73 18.96 84.14 4.17 79.31 0.94 64.12"/><polyline id="027d8be2-a24c-4d9a-91d5-eb4fc6af0a3e" data-name="polyline10060" class="b15a3087-2106-462e-af6e-86f220a65e08" points="53.32 53.79 53.32 69.34 66.8 77.11 80.25 69.34 80.25 53.79 66.77 46.01"/><polyline id="b2ed7baa-d709-4b58-a909-75c4d62d6a03" data-name="polyline10062" class="b15a3087-2106-462e-af6e-86f220a65e08" points="37.46 28.61 43.02 20.45 58.49 19.27 65.27 26.55"/><polyline id="2608d960-ead3-4f4a-9f10-73705cd70907" data-name="polyline10064" class="b15a3087-2106-462e-af6e-86f220a65e08" points="68.43 34.92 66.77 46.01 53.32 53.79 38.86 48.12 35.75 38.07"/><line id="fd7e6495-396b-4eb0-97c2-4c852c2c9118" data-name="line10066" class="b15a3087-2106-462e-af6e-86f220a65e08" x1="66.8" y1="77.11" x2="66.8" y2="87.75"/><line id="665575ae-3612-488d-8b76-799926f25ffb" data-name="line10068" class="b15a3087-2106-462e-af6e-86f220a65e08" x1="66.26" y1="49.02" x2="56.18" y2="54.85"/><line id="9c0261e2-4250-459a-8402-3216fb2e2c68" data-name="line10070" class="b15a3087-2106-462e-af6e-86f220a65e08" x1="77.89" y1="55.73" x2="77.89" y2="67.4"/><line id="0908d0b7-ff2c-430f-b521-b7522968f512" data-name="line10072" class="b15a3087-2106-462e-af6e-86f220a65e08" x1="66.28" y1="74.1" x2="56.18" y2="68.28"/><line id="b007adda-8a85-4d60-ab2a-05a3c1da7231" data-name="line10074" class="b15a3087-2106-462e-af6e-86f220a65e08" x1="38.86" y1="48.12" x2="27.3" y2="58.53"/><line id="b47fb54c-9993-4680-a66c-b0f7cae1af57" data-name="line10076" class="b15a3087-2106-462e-af6e-86f220a65e08" x1="73.03" y1="29.42" x2="83.93" y2="26.05"/><line id="61e1044f-2370-44fb-938e-c22b14c219c6" data-name="line10078" class="b15a3087-2106-462e-af6e-86f220a65e08" x1="6.74" y1="77.69" x2="17.84" y2="81.29"/><line id="c76d2713-e636-4152-8e08-8603a12e0bb6" data-name="line10080" class="b455284b-e7b9-4db1-904c-8d047041545f" x1="3.96" y1="64.57" x2="12.64" y2="56.76"/><line id="8f2ead9a-fbfd-4407-ba1b-c26ccf3cb7ad" data-name="line10082" class="b15a3087-2106-462e-af6e-86f220a65e08" x1="25.4" y1="60.92" x2="27.82" y2="72.31"/><line id="203c91a3-743a-4738-a7aa-b7755014d92a" data-name="line10084" class="b15a3087-2106-462e-af6e-86f220a65e08" x1="40.53" y1="45.57" x2="38.02" y2="37.44"/><line id="d980f889-819a-491a-b10b-ab559659fe52" data-name="line10086" class="b15a3087-2106-462e-af6e-86f220a65e08" x1="57.17" y1="19.37" x2="61.83" y2="8.89"/><line id="5387ca1b-f035-49c3-94d2-260871a20751" data-name="line10088" class="b15a3087-2106-462e-af6e-86f220a65e08" x1="59.36" y1="20.21" x2="63.96" y2="9.89"/><g id="4257131a-a9ad-47c8-83fa-04d4e6488416" data-name="g10100"><text class="2364d11d-5a26-4925-b537-ec608542799b" transform="translate(63.28 96.15)">Cl</text><text class="2364d11d-5a26-4925-b537-ec608542799b" transform="translate(30.88 36.82)">N</text><text class="2364d11d-5a26-4925-b537-ec608542799b" transform="translate(65.67 34.08)">N</text><text class="2364d11d-5a26-4925-b537-ec608542799b" transform="translate(61.17 8.57)">O</text></g></g></g></svg>