<svg xmlns="http://www.w3.org/2000/svg" width="42.44" height="30.66" viewBox="0 0 42.44 30.66"><defs><style>.\38 6d44876-0c6e-4a55-a867-c8176f9a6b5a{fill:#606060;}</style></defs><title>pills</title><g id="750da61a-acf1-4375-bd1d-b0d03f1fb5f2" data-name="Layer 2"><g id="011c0312-8c13-4e21-9276-4744e009b158" data-name="svg8"><g id="ed94105b-62ba-44dc-b1d7-4a49f71ebfb3" data-name="g10235"><g id="da2bbcc6-a411-4e83-b234-8db690282424" data-name="g10178"><path id="0ca01523-356f-4466-a64d-414e0033c427" data-name="path10174" class="86d44876-0c6e-4a55-a867-c8176f9a6b5a" d="M14.81,14.82,9.37,9.37,13.9,4.84a4.17,4.17,0,0,1,5.9,5.9l-2.42,2.42a10.61,10.61,0,0,1,4.39-1h1.51a7.79,7.79,0,0,0-11.94-9.9L2.28,11.35a7.79,7.79,0,0,0,8.91,12.51c0-.31,0-.63,0-.95A10.66,10.66,0,0,1,14.81,14.82Z"/><path id="537d404a-1529-4dee-980b-0c25b10bc3b0" data-name="path10176" class="86d44876-0c6e-4a55-a867-c8176f9a6b5a" d="M40.13,17.28A7.74,7.74,0,0,0,34.65,15l-12.86.06a7.79,7.79,0,0,0,0,15.57l12.86-.06a7.79,7.79,0,0,0,5.45-13.32ZM21.84,27h0a4.17,4.17,0,0,1,0-8.34l6.41,0c0,.9,0,7.42,0,8.34Z"/></g></g></g></g></svg>