<svg xmlns="http://www.w3.org/2000/svg" width="51.57" height="67.05" viewBox="0 0 51.57 67.05"><defs><style>.\33 5121933-5abd-452e-abfa-a7f4fa1c66c5{fill:#f68712;}</style></defs><title>testTubes</title><g id="003575f1-2fad-4740-84a9-6788941a10d9" data-name="Layer 2"><g id="5d284c5f-3729-4cc4-8c69-0fa9a76e84f8" data-name="svg8"><g id="ea2c9d79-a0be-45a5-8e53-6a2aa3b7a70f" data-name="g10298"><g id="d8e59d78-ceff-40b5-914c-08f553c39236" data-name="g10241"><path id="5a5c8232-abd6-427c-8e29-b7221a7257d4" data-name="path10237" class="35121933-5abd-452e-abfa-a7f4fa1c66c5" d="M18.14,14.12V7.65a7.65,7.65,0,1,0-15.3,0v6.47a2.84,2.84,0,0,0,0,5.68v34a8.55,8.55,0,0,0,1.23,4.43l4.77,7.89a1.92,1.92,0,0,0,3.29,0l4.77-7.89a8.55,8.55,0,0,0,1.23-4.43v-34a2.84,2.84,0,1,0,0-5.68ZM12.46,53.81A2.87,2.87,0,0,1,12,55.29l-1.55,2.57L8.93,55.29a2.87,2.87,0,0,1-.41-1.49v-34h3.94Z"/><path id="c382d9db-40e6-4a54-a8bb-1dcb3283bda4" data-name="path10239" class="35121933-5abd-452e-abfa-a7f4fa1c66c5" d="M48.73,14.12V7.65a7.65,7.65,0,0,0-15.3,0v6.47a2.84,2.84,0,1,0,0,5.68v34a8.55,8.55,0,0,0,1.23,4.43l4.77,7.89a1.92,1.92,0,0,0,3.29,0l4.77-7.89a8.55,8.55,0,0,0,1.23-4.43v-34a2.84,2.84,0,1,0,0-5.68ZM43.05,44.43H39.11V19.8h3.94Z"/></g></g></g></g></svg>