<svg width="216" height="324" viewBox="0 0 216 324" fill="none" xmlns="http://www.w3.org/2000/svg">
<g filter="url(#filter0_i)">
<path d="M88.4291 160.271C64.2665 155.383 50.3906 152.703 28.6957 144L26.0742 153.373C25.9315 153.883 25.9895 154.431 26.2932 154.865C28.4783 157.99 34.7591 163.595 41.9698 165.864C59.2914 171.317 74.6809 174 89.8513 174L88.4291 160.271Z" fill="url(#paint0_linear)"/>
<path d="M128.274 160.271C152.436 155.383 166.312 152.703 188.007 144L190.628 153.373C190.771 153.883 190.713 154.431 190.409 154.865C188.224 157.99 181.944 163.595 174.733 165.864C157.411 171.317 142.022 174 126.851 174L128.274 160.271Z" fill="url(#paint1_linear)"/>
</g>
<path d="M88.4291 160.271C64.2665 155.383 50.3906 152.703 28.6957 144L26.0742 153.373C25.9315 153.883 25.9895 154.431 26.2932 154.865C28.4783 157.99 34.7591 163.595 41.9698 165.864C59.2914 171.317 74.6809 174 89.8513 174L88.4291 160.271Z" fill="url(#paint2_linear)"/>
<path d="M128.274 160.271C152.436 155.383 166.312 152.703 188.007 144L190.628 153.373C190.771 153.883 190.713 154.431 190.409 154.865C188.224 157.99 181.944 163.595 174.733 165.864C157.411 171.317 142.022 174 126.851 174L128.274 160.271Z" fill="url(#paint3_linear)"/>
<g filter="url(#filter1_di)">
<mask id="path-3-outside-1" maskUnits="userSpaceOnUse" x="4" y="0" width="208" height="316" fill="black">
<rect fill="white" x="4" width="208" height="316"/>
<path fill-rule="evenodd" clip-rule="evenodd" d="M10.9562 30.5871C4.3361 105.593 4.37234 139.396 10.9184 184.386C10.9763 184.783 11.159 185.164 11.4312 185.46C27.8155 203.238 36.2743 210.043 49.0329 216.046C49.6396 216.332 50.0724 216.914 50.1766 217.577C55.7807 253.219 60.1246 263.97 69.8631 297.993C69.9566 298.32 70.1284 298.625 70.3824 298.851C75.1981 303.132 95.8423 314 107.508 314C119.174 314 139.818 303.132 144.634 298.851C144.888 298.625 145.06 298.32 145.153 297.993C154.892 263.97 159.236 253.219 164.84 217.577C164.944 216.914 165.377 216.332 165.983 216.046C178.742 210.043 187.201 203.238 203.585 185.46C203.857 185.164 204.04 184.783 204.098 184.386C210.644 139.396 210.68 105.593 204.06 30.5871C204.027 30.2096 203.885 29.8373 203.652 29.5389C198.056 22.3859 192.646 19.3301 187.068 15.9535C186.183 15.4175 185.028 15.6328 184.481 16.5112C181.602 21.1287 179.116 28.2146 178.604 29.7149C178.539 29.9061 178.507 30.0889 178.504 30.2909C178.455 33.468 178.037 62.012 178.491 83.2248C178.502 83.7269 178.324 84.211 177.989 84.5852C173.715 89.3596 170.819 91.5639 165.754 94.1277C165.279 94.368 164.724 94.4033 164.221 94.2291C155.781 91.3059 151.306 89.1549 145.506 84.4105C145.182 84.1455 144.952 83.782 144.847 83.3767L138.043 57.1346C138.02 57.045 138.004 56.9616 137.993 56.8696C137.707 54.4086 133.441 17.8988 131.508 15C129.518 12.0153 107.732 3.09159 107.51 3.0007C107.503 2.998 107.504 3.00151 107.498 3.00422V3.00422C107.481 3.01113 107.444 3.02645 107.387 3.04976C107.387 3.04996 107.386 3.05017 107.386 3.05037C107.335 3.0785 107.282 3.09536 107.225 3.11651C104.652 4.17816 85.3743 12.2008 83.5081 15C81.5756 17.8988 77.309 54.4086 77.0232 56.8696C77.0126 56.9616 76.9965 57.045 76.9732 57.1346L70.1697 83.3767C70.0646 83.782 69.8347 84.1455 69.5106 84.4105C63.71 89.1549 59.2356 91.3059 50.7952 94.2291C50.2922 94.4033 49.7376 94.368 49.2627 94.1277C44.1977 91.5639 41.3016 89.3596 37.0276 84.5852C36.6926 84.211 36.5144 83.7269 36.5252 83.2248C36.9789 62.012 36.5616 33.468 36.5127 30.2909C36.5096 30.0889 36.4772 29.9061 36.412 29.7149C35.9008 28.2146 33.4143 21.1287 30.5357 16.5112C29.9881 15.6328 28.8336 15.4175 27.9481 15.9535C22.3708 19.3301 16.9607 22.3859 11.3648 29.5389C11.1313 29.8373 10.9896 30.2096 10.9562 30.5871ZM88.5778 158.271C64.4152 153.383 50.5393 150.703 28.8444 142L26.2229 151.372C26.0802 151.883 26.1382 152.431 26.4419 152.865C28.627 155.99 34.9078 161.595 42.1185 163.864C59.4401 169.317 74.8296 172 90 172L88.5778 158.271ZM128.422 158.271C152.585 153.383 166.461 150.703 188.156 142L190.777 151.372C190.92 151.883 190.862 152.431 190.558 152.865C188.373 155.99 182.092 161.595 174.881 163.864C157.56 169.317 142.17 172 127 172L128.422 158.271Z"/>
</mask>
<path fill-rule="evenodd" clip-rule="evenodd" d="M10.9562 30.5871C4.3361 105.593 4.37234 139.396 10.9184 184.386C10.9763 184.783 11.159 185.164 11.4312 185.46C27.8155 203.238 36.2743 210.043 49.0329 216.046C49.6396 216.332 50.0724 216.914 50.1766 217.577C55.7807 253.219 60.1246 263.97 69.8631 297.993C69.9566 298.32 70.1284 298.625 70.3824 298.851C75.1981 303.132 95.8423 314 107.508 314C119.174 314 139.818 303.132 144.634 298.851C144.888 298.625 145.06 298.32 145.153 297.993C154.892 263.97 159.236 253.219 164.84 217.577C164.944 216.914 165.377 216.332 165.983 216.046C178.742 210.043 187.201 203.238 203.585 185.46C203.857 185.164 204.04 184.783 204.098 184.386C210.644 139.396 210.68 105.593 204.06 30.5871C204.027 30.2096 203.885 29.8373 203.652 29.5389C198.056 22.3859 192.646 19.3301 187.068 15.9535C186.183 15.4175 185.028 15.6328 184.481 16.5112C181.602 21.1287 179.116 28.2146 178.604 29.7149C178.539 29.9061 178.507 30.0889 178.504 30.2909C178.455 33.468 178.037 62.012 178.491 83.2248C178.502 83.7269 178.324 84.211 177.989 84.5852C173.715 89.3596 170.819 91.5639 165.754 94.1277C165.279 94.368 164.724 94.4033 164.221 94.2291C155.781 91.3059 151.306 89.1549 145.506 84.4105C145.182 84.1455 144.952 83.782 144.847 83.3767L138.043 57.1346C138.02 57.045 138.004 56.9616 137.993 56.8696C137.707 54.4086 133.441 17.8988 131.508 15C129.518 12.0153 107.732 3.09159 107.51 3.0007C107.503 2.998 107.504 3.00151 107.498 3.00422V3.00422C107.481 3.01113 107.444 3.02645 107.387 3.04976C107.387 3.04996 107.386 3.05017 107.386 3.05037C107.335 3.0785 107.282 3.09536 107.225 3.11651C104.652 4.17816 85.3743 12.2008 83.5081 15C81.5756 17.8988 77.309 54.4086 77.0232 56.8696C77.0126 56.9616 76.9965 57.045 76.9732 57.1346L70.1697 83.3767C70.0646 83.782 69.8347 84.1455 69.5106 84.4105C63.71 89.1549 59.2356 91.3059 50.7952 94.2291C50.2922 94.4033 49.7376 94.368 49.2627 94.1277C44.1977 91.5639 41.3016 89.3596 37.0276 84.5852C36.6926 84.211 36.5144 83.7269 36.5252 83.2248C36.9789 62.012 36.5616 33.468 36.5127 30.2909C36.5096 30.0889 36.4772 29.9061 36.412 29.7149C35.9008 28.2146 33.4143 21.1287 30.5357 16.5112C29.9881 15.6328 28.8336 15.4175 27.9481 15.9535C22.3708 19.3301 16.9607 22.3859 11.3648 29.5389C11.1313 29.8373 10.9896 30.2096 10.9562 30.5871ZM88.5778 158.271C64.4152 153.383 50.5393 150.703 28.8444 142L26.2229 151.372C26.0802 151.883 26.1382 152.431 26.4419 152.865C28.627 155.99 34.9078 161.595 42.1185 163.864C59.4401 169.317 74.8296 172 90 172L88.5778 158.271ZM128.422 158.271C152.585 153.383 166.461 150.703 188.156 142L190.777 151.372C190.92 151.883 190.862 152.431 190.558 152.865C188.373 155.99 182.092 161.595 174.881 163.864C157.56 169.317 142.17 172 127 172L128.422 158.271Z" fill="url(#paint4_diamond)"/>
<path d="M106.839 2.19327C106.325 2.39405 106.071 2.97389 106.271 3.48839C106.472 4.00288 107.052 4.2572 107.567 4.05642L106.839 2.19327ZM107.514 4.00297C108.067 4.00297 108.514 3.55526 108.514 3.00297C108.514 2.45069 108.067 2.00297 107.514 2.00297V4.00297ZM107.498 3.00422L107.64 3.99408L107.498 3.00422ZM107.387 3.04976L107.767 3.97457C107.803 3.95977 107.838 3.94289 107.872 3.924L107.387 3.04976ZM107.225 3.11651L107.574 4.05364C107.585 4.04959 107.596 4.04534 107.606 4.04091L107.225 3.11651ZM107.567 4.05642C107.568 4.05586 107.57 4.05498 107.574 4.05364L106.876 2.17938C106.865 2.18344 106.853 2.18809 106.839 2.19327L107.567 4.05642ZM107.872 3.924C107.89 3.91426 107.874 3.92399 107.848 3.93533C107.834 3.94189 107.809 3.95208 107.777 3.96246C107.746 3.9727 107.699 3.98563 107.64 3.99408L107.356 2.01436C107.207 2.03566 107.092 2.08253 107.032 2.10935C106.969 2.13763 106.916 2.16741 106.901 2.17551L107.872 3.924ZM107.64 3.99408C107.604 3.99917 107.562 4.00297 107.514 4.00297V2.00297C107.456 2.00297 107.402 2.00765 107.356 2.01436L107.64 3.99408ZM107.606 4.04091C107.671 4.01432 107.725 3.99214 107.767 3.97457L107.007 2.12494C106.963 2.14279 106.909 2.16525 106.843 2.19212L107.606 4.04091ZM10.9562 30.5871L8.96398 30.4112L8.96398 30.4112L10.9562 30.5871ZM10.9184 184.386L8.93927 184.674L8.93927 184.674L10.9184 184.386ZM11.4312 185.46L12.9019 184.104L12.9019 184.104L11.4312 185.46ZM49.0329 216.046L49.8845 214.237L49.8845 214.237L49.0329 216.046ZM50.1766 217.577L48.2009 217.887L48.2009 217.887L50.1766 217.577ZM69.8631 297.993L71.7858 297.443L71.7858 297.443L69.8631 297.993ZM70.3824 298.851L71.711 297.356L71.711 297.356L70.3824 298.851ZM11.3648 29.5389L12.94 30.7712L12.94 30.7712L11.3648 29.5389ZM27.9481 15.9535L28.9839 17.6644L28.9839 17.6644L27.9481 15.9535ZM30.5357 16.5112L32.2329 15.4531L32.2329 15.4531L30.5357 16.5112ZM36.412 29.7149L34.519 30.36L34.519 30.36L36.412 29.7149ZM36.5127 30.2909L34.5129 30.3217L34.5129 30.3217L36.5127 30.2909ZM36.5252 83.2248L38.5247 83.2675L38.5247 83.2675L36.5252 83.2248ZM37.0276 84.5852L35.5374 85.9191L35.5374 85.9191L37.0276 84.5852ZM49.2627 94.1277L50.166 92.3433L50.1659 92.3433L49.2627 94.1277ZM50.7952 94.2291L51.4497 96.119L51.4497 96.119L50.7952 94.2291ZM69.5106 84.4105L68.2444 82.8624L68.2444 82.8624L69.5106 84.4105ZM70.1697 83.3767L68.2337 82.8747L68.2337 82.8748L70.1697 83.3767ZM76.9732 57.1346L78.9092 57.6365L78.9092 57.6365L76.9732 57.1346ZM77.0232 56.8696L75.0366 56.6389L75.0366 56.639L77.0232 56.8696ZM83.5081 15L85.1722 16.1094L85.1722 16.1094L83.5081 15ZM204.06 30.5871L206.052 30.4112L206.052 30.4112L204.06 30.5871ZM204.098 184.386L206.077 184.674L206.077 184.674L204.098 184.386ZM203.585 185.46L202.114 184.104L202.114 184.104L203.585 185.46ZM165.983 216.046L165.132 214.237L165.132 214.237L165.983 216.046ZM164.84 217.577L166.816 217.887L166.816 217.887L164.84 217.577ZM145.153 297.993L143.231 297.443L143.231 297.443L145.153 297.993ZM144.634 298.851L143.305 297.356L143.305 297.356L144.634 298.851ZM203.652 29.5389L202.076 30.7712L202.076 30.7712L203.652 29.5389ZM187.068 15.9535L186.032 17.6644L186.032 17.6644L187.068 15.9535ZM184.481 16.5112L182.783 15.4531L182.783 15.4531L184.481 16.5112ZM178.604 29.7149L180.497 30.36L180.497 30.36L178.604 29.7149ZM178.504 30.2909L180.503 30.3217L180.503 30.3217L178.504 30.2909ZM178.491 83.2248L176.492 83.2675L176.492 83.2675L178.491 83.2248ZM177.989 84.5852L179.479 85.9191L179.479 85.9191L177.989 84.5852ZM165.754 94.1277L164.85 92.3433L164.85 92.3433L165.754 94.1277ZM164.221 94.2291L163.567 96.119L163.567 96.119L164.221 94.2291ZM145.506 84.4105L146.772 82.8624L146.772 82.8624L145.506 84.4105ZM144.847 83.3767L146.783 82.8748L146.783 82.8747L144.847 83.3767ZM138.043 57.1346L136.107 57.6365L136.107 57.6365L138.043 57.1346ZM137.993 56.8696L139.98 56.639L139.98 56.6389L137.993 56.8696ZM131.508 15L129.844 16.1094L129.844 16.1094L131.508 15ZM107.386 3.05037L106.416 1.30121L106.415 1.30207L107.386 3.05037ZM28.8444 142L29.589 140.144C29.0617 139.932 28.4692 139.955 27.9596 140.206C27.45 140.458 27.0714 140.914 26.9184 141.461L28.8444 142ZM88.5778 158.271L90.5671 158.065C90.477 157.195 89.8318 156.484 88.9743 156.311L88.5778 158.271ZM90 172V174C90.5663 174 91.106 173.76 91.4853 173.339C91.8645 172.919 92.0477 172.357 91.9894 171.794L90 172ZM42.1185 163.864L42.719 161.957L42.719 161.957L42.1185 163.864ZM26.4419 152.865L24.8028 154.011L24.8028 154.011L26.4419 152.865ZM26.2229 151.372L28.149 151.911L28.149 151.911L26.2229 151.372ZM188.156 142L190.082 141.461C189.929 140.914 189.55 140.458 189.04 140.206C188.531 139.955 187.938 139.932 187.411 140.144L188.156 142ZM128.422 158.271L128.026 156.311C127.168 156.484 126.523 157.195 126.433 158.065L128.422 158.271ZM127 172L125.011 171.794C124.952 172.357 125.135 172.919 125.515 173.339C125.894 173.76 126.434 174 127 174V172ZM174.881 163.864L174.281 161.957L174.281 161.957L174.881 163.864ZM190.558 152.865L192.197 154.011L192.197 154.011L190.558 152.865ZM190.777 151.372L188.851 151.911L188.851 151.911L190.777 151.372ZM107.387 3.04976L106.626 1.20011C106.553 1.23017 106.482 1.26452 106.413 1.303L107.387 3.04976ZM107.225 3.11651L106.527 1.24226C106.505 1.25037 106.484 1.25886 106.462 1.26772L107.225 3.11651ZM107.51 3.0007L106.752 4.85163L107.51 3.0007ZM8.96398 30.4112C2.33767 105.487 2.36124 139.464 8.93927 184.674L12.8976 184.098C6.38344 139.327 6.33453 105.699 12.9485 30.7629L8.96398 30.4112ZM9.96051 186.815C26.4186 204.673 35.0838 211.693 48.1813 217.856L49.8845 214.237C37.4648 208.392 29.2123 201.802 12.9019 184.104L9.96051 186.815ZM48.2009 217.887C53.829 253.682 58.2187 264.579 67.9403 298.543L71.7858 297.443C62.0306 263.361 57.7325 252.756 52.1523 217.266L48.2009 217.887ZM69.0537 300.346C71.6965 302.695 78.29 306.582 85.5552 309.854C92.8074 313.12 101.219 316 107.508 316V312C102.131 312 94.388 309.445 87.1977 306.207C80.0204 302.975 73.884 299.288 71.711 297.356L69.0537 300.346ZM12.94 30.7712C18.2842 23.94 23.395 21.048 28.9839 17.6644L26.9123 14.2426C21.3466 17.6121 15.6372 20.8318 9.78954 28.3065L12.94 30.7712ZM28.8385 17.5693C31.5791 21.9654 34.0018 28.8425 34.519 30.36L38.3051 29.0697C37.7997 27.5867 35.2495 20.2919 32.2329 15.4531L28.8385 17.5693ZM34.5129 30.3217C34.5619 33.5013 34.9785 62.0108 34.5256 83.182L38.5247 83.2675C38.9793 62.0131 38.5613 33.4348 38.5124 30.2601L34.5129 30.3217ZM35.5374 85.9191C39.9672 90.8676 43.0593 93.2294 48.3595 95.9121L50.1659 92.3433C45.3361 89.8985 42.636 87.8516 38.5177 83.2512L35.5374 85.9191ZM51.4497 96.119C60.0203 93.1507 64.7313 90.9033 70.7768 85.9587L68.2444 82.8624C62.6887 87.4064 58.4509 89.4611 50.1406 92.3392L51.4497 96.119ZM72.1057 83.8786L78.9092 57.6365L75.0372 56.6327L68.2337 82.8747L72.1057 83.8786ZM79.0099 57.1003C79.1523 55.8735 80.2885 46.1472 81.6296 36.3708C82.3005 31.4797 83.02 26.5959 83.6899 22.7633C84.0253 20.844 84.3439 19.2145 84.6329 17.9897C84.7778 17.3758 84.909 16.8904 85.0238 16.5335C85.1556 16.1241 85.217 16.0422 85.1722 16.1094L81.844 13.8906C81.5576 14.3202 81.3593 14.8632 81.2161 15.3083C81.056 15.8059 80.8971 16.4045 80.7398 17.0711C80.4245 18.4074 80.0904 20.125 79.7496 22.0746C79.067 25.9798 78.3397 30.9208 77.6667 35.8272C76.3199 45.6455 75.1799 55.4047 75.0366 56.6389L79.0099 57.1003ZM78.9092 57.6365C78.9536 57.4653 78.9877 57.2911 79.0099 57.1002L75.0366 56.639C75.0366 56.6391 75.0367 56.6381 75.037 56.6362C75.0373 56.6342 75.0376 56.6322 75.038 56.6302C75.0388 56.6258 75.039 56.6258 75.0372 56.6327L78.9092 57.6365ZM70.7768 85.9587C71.4357 85.4198 71.8961 84.6872 72.1057 83.8786L68.2337 82.8748C68.2336 82.8751 68.2337 82.8744 68.2349 82.8726C68.2361 82.8707 68.239 82.8668 68.2444 82.8624L70.7768 85.9587ZM48.3595 95.9121C49.3236 96.4001 50.4408 96.4683 51.4497 96.119L50.1406 92.3392C50.1433 92.3383 50.146 92.3379 50.149 92.3381C50.1522 92.3383 50.1582 92.3393 50.166 92.3433L48.3595 95.9121ZM34.5256 83.182C34.5041 84.1884 34.8626 85.1653 35.5374 85.9191L38.5177 83.2512C38.5191 83.2527 38.5214 83.2561 38.5231 83.2606C38.5247 83.265 38.5247 83.2678 38.5247 83.2675L34.5256 83.182ZM34.519 30.36C34.5201 30.3634 34.5199 30.3631 34.519 30.3596C34.518 30.356 34.5168 30.3507 34.5157 30.3441C34.5145 30.3375 34.5138 30.3316 34.5133 30.3268C34.5129 30.322 34.5129 30.3201 34.5129 30.3217L38.5124 30.2601C38.506 29.8447 38.4364 29.4548 38.3051 29.0697L34.519 30.36ZM67.9403 298.543C68.1177 299.163 68.465 299.823 69.0537 300.346L71.711 297.356C71.7523 297.393 71.7737 297.424 71.7823 297.439C71.7905 297.453 71.7893 297.455 71.7858 297.443L67.9403 298.543ZM48.1813 217.856C48.1766 217.854 48.1821 217.855 48.1904 217.866C48.1941 217.871 48.1969 217.876 48.1987 217.881C48.2005 217.885 48.2009 217.887 48.2009 217.887L52.1523 217.266C51.9462 215.955 51.0975 214.808 49.8845 214.237L48.1813 217.856ZM8.93927 184.674C9.0557 185.474 9.41767 186.226 9.96053 186.815L12.9019 184.104C12.9034 184.106 12.9033 184.106 12.9023 184.104C12.9013 184.103 12.9001 184.101 12.8989 184.098C12.8976 184.096 12.897 184.094 12.8968 184.093C12.8965 184.092 12.897 184.094 12.8976 184.098L8.93927 184.674ZM28.9839 17.6644C28.9946 17.6579 28.9901 17.666 28.964 17.6606C28.9496 17.6576 28.9267 17.6499 28.9005 17.6321C28.8725 17.6131 28.851 17.5894 28.8385 17.5693L32.2329 15.4531C31.0463 13.5497 28.6338 13.2004 26.9123 14.2426L28.9839 17.6644ZM12.9485 30.7629C12.9484 30.7634 12.9485 30.7625 12.949 30.7606C12.9494 30.7586 12.95 30.7569 12.9504 30.7558C12.9509 30.7546 12.9508 30.7551 12.9495 30.7573C12.9483 30.7595 12.9454 30.7643 12.94 30.7712L9.78954 28.3065C9.30706 28.9232 9.02971 29.6666 8.96398 30.4112L12.9485 30.7629ZM202.068 30.7629C208.682 105.699 208.633 139.327 202.119 184.098L206.077 184.674C212.655 139.464 212.679 105.487 206.052 30.4112L202.068 30.7629ZM202.114 184.104C185.804 201.802 177.552 208.392 165.132 214.237L166.835 217.856C179.933 211.693 188.598 204.673 205.056 186.815L202.114 184.104ZM162.864 217.266C157.284 252.756 152.986 263.361 143.231 297.443L147.076 298.543C156.798 264.579 161.187 253.682 166.816 217.887L162.864 217.266ZM143.305 297.356C141.132 299.288 134.996 302.975 127.819 306.207C120.628 309.445 112.885 312 107.508 312V316C113.797 316 122.209 313.12 129.461 309.854C136.726 306.582 143.32 302.695 145.963 300.346L143.305 297.356ZM205.227 28.3065C199.379 20.8318 193.67 17.6121 188.104 14.2426L186.032 17.6644C191.621 21.048 196.732 23.94 202.076 30.7712L205.227 28.3065ZM182.783 15.4531C179.767 20.2919 177.217 27.5867 176.711 29.0697L180.497 30.36C181.015 28.8425 183.437 21.9654 186.178 17.5693L182.783 15.4531ZM176.504 30.2601C176.455 33.4348 176.037 62.0131 176.492 83.2675L180.491 83.182C180.038 62.0108 180.454 33.5013 180.503 30.3217L176.504 30.2601ZM176.499 83.2512C172.38 87.8516 169.68 89.8985 164.85 92.3433L166.657 95.9121C171.957 93.2294 175.049 90.8676 179.479 85.9191L176.499 83.2512ZM164.876 92.3392C156.565 89.4611 152.328 87.4064 146.772 82.8624L144.24 85.9587C150.285 90.9033 154.996 93.1507 163.567 96.119L164.876 92.3392ZM146.783 82.8747L139.979 56.6327L136.107 57.6365L142.911 83.8786L146.783 82.8747ZM139.98 56.6389C139.836 55.4047 138.696 45.6455 137.35 35.8272C136.677 30.9208 135.949 25.9798 135.267 22.0746C134.926 20.125 134.592 18.4074 134.277 17.0711C134.119 16.4045 133.96 15.8059 133.8 15.3083C133.657 14.8632 133.459 14.3202 133.172 13.8906L129.844 16.1094C129.799 16.0422 129.861 16.1241 129.993 16.5335C130.107 16.8904 130.239 17.3758 130.383 17.9897C130.672 19.2145 130.991 20.844 131.326 22.7633C131.996 26.5959 132.716 31.4797 133.387 36.3708C134.728 46.1472 135.864 55.8735 136.006 57.1003L139.98 56.6389ZM133.172 13.8906C132.681 13.1541 131.813 12.4984 131.032 11.9724C130.169 11.3912 129.091 10.7627 127.902 10.1195C125.517 8.8302 122.554 7.4105 119.677 6.09611C113.917 3.46387 108.386 1.19821 108.268 1.14977L106.752 4.85163C106.856 4.89408 112.329 7.13572 118.015 9.73423C120.862 11.0352 123.731 12.4118 125.999 13.638C127.135 14.2525 128.087 14.8115 128.798 15.29C129.153 15.5292 129.423 15.7319 129.615 15.8962C129.825 16.0752 129.868 16.1457 129.844 16.1094L133.172 13.8906ZM139.979 56.6327C139.977 56.6258 139.978 56.6259 139.978 56.6303C139.979 56.6322 139.979 56.6343 139.979 56.6362C139.98 56.6381 139.98 56.6392 139.98 56.639L136.006 57.1002C136.029 57.291 136.063 57.4652 136.107 57.6365L139.979 56.6327ZM146.772 82.8624C146.777 82.8668 146.78 82.8707 146.781 82.8726C146.783 82.8744 146.783 82.8751 146.783 82.8748L142.911 83.8786C143.12 84.6872 143.581 85.4198 144.24 85.9587L146.772 82.8624ZM164.85 92.3433C164.858 92.3393 164.864 92.3383 164.867 92.3381C164.87 92.3379 164.873 92.3383 164.876 92.3392L163.567 96.119C164.576 96.4683 165.693 96.4001 166.657 95.9121L164.85 92.3433ZM176.492 83.2675C176.492 83.2678 176.492 83.265 176.493 83.2606C176.495 83.2561 176.497 83.2527 176.499 83.2512L179.479 85.9191C180.154 85.1653 180.512 84.1884 180.491 83.182L176.492 83.2675ZM176.711 29.0697C176.58 29.4548 176.51 29.8447 176.504 30.2601L180.503 30.3217C180.503 30.3201 180.503 30.322 180.503 30.3268C180.503 30.3316 180.502 30.3375 180.501 30.3441C180.5 30.3507 180.498 30.356 180.497 30.3596C180.496 30.3631 180.496 30.3634 180.497 30.36L176.711 29.0697ZM143.231 297.443C143.227 297.455 143.226 297.453 143.234 297.439C143.243 297.424 143.264 297.393 143.305 297.356L145.963 300.346C146.551 299.823 146.899 299.163 147.076 298.543L143.231 297.443ZM165.132 214.237C163.919 214.808 163.07 215.955 162.864 217.266L166.816 217.887C166.816 217.887 166.816 217.885 166.818 217.881C166.819 217.876 166.822 217.871 166.826 217.866C166.834 217.855 166.84 217.854 166.835 217.856L165.132 214.237ZM202.119 184.098C202.119 184.094 202.12 184.092 202.12 184.093C202.119 184.094 202.119 184.096 202.118 184.098C202.116 184.101 202.115 184.103 202.114 184.104C202.113 184.106 202.113 184.106 202.114 184.104L205.056 186.815C205.599 186.226 205.961 185.474 206.077 184.674L202.119 184.098ZM188.104 14.2426C186.383 13.2004 183.97 13.5497 182.783 15.4531L186.178 17.5693C186.165 17.5894 186.144 17.6131 186.116 17.6321C186.09 17.6499 186.067 17.6576 186.052 17.6606C186.026 17.666 186.022 17.6579 186.032 17.6644L188.104 14.2426ZM206.052 30.4112C205.987 29.6666 205.709 28.9232 205.227 28.3065L202.076 30.7712C202.071 30.7643 202.068 30.7595 202.067 30.7573C202.066 30.7551 202.066 30.7546 202.066 30.7558C202.066 30.7569 202.067 30.7586 202.067 30.7605C202.068 30.7625 202.068 30.7634 202.068 30.7629L206.052 30.4112ZM28.0998 143.856C49.9829 152.634 64.0222 155.345 88.1812 160.231L88.9743 156.311C64.8081 151.422 51.0958 148.771 29.589 140.144L28.0998 143.856ZM86.5884 158.477L88.0106 172.206L91.9894 171.794L90.5671 158.065L86.5884 158.477ZM90 170C75.0763 170 59.8921 167.363 42.719 161.957L41.518 165.772C58.9881 171.272 74.5829 174 90 174V170ZM42.719 161.957C39.3883 160.908 36.2179 159.068 33.6019 157.09C30.9714 155.101 29.0209 153.063 28.081 151.719L24.8028 154.011C26.0479 155.792 28.3304 158.119 31.1893 160.281C34.0626 162.453 37.638 164.551 41.518 165.772L42.719 161.957ZM28.149 151.911L30.7705 142.539L26.9184 141.461L24.2968 150.834L28.149 151.911ZM28.081 151.719C28.1243 151.781 28.1417 151.84 28.1468 151.878C28.1514 151.912 28.1458 151.923 28.149 151.911L24.2968 150.834C24.0207 151.821 24.1012 153.007 24.8028 154.011L28.081 151.719ZM187.411 140.144C165.904 148.771 152.192 151.422 128.026 156.311L128.819 160.231C152.978 155.345 167.017 152.634 188.9 143.856L187.411 140.144ZM126.433 158.065L125.011 171.794L128.989 172.206L130.412 158.477L126.433 158.065ZM127 174C142.417 174 158.012 171.272 175.482 165.772L174.281 161.957C157.108 167.363 141.924 170 127 170V174ZM175.482 165.772C179.362 164.551 182.937 162.453 185.811 160.281C188.67 158.119 190.952 155.792 192.197 154.011L188.919 151.719C187.979 153.063 186.029 155.101 183.398 157.09C180.782 159.068 177.612 160.908 174.281 161.957L175.482 165.772ZM192.703 150.834L190.082 141.461L186.229 142.539L188.851 151.911L192.703 150.834ZM192.197 154.011C192.899 153.007 192.979 151.821 192.703 150.834L188.851 151.911C188.854 151.923 188.849 151.912 188.853 151.878C188.858 151.84 188.876 151.781 188.919 151.719L192.197 154.011ZM106.74 1.15349C106.722 1.16081 106.684 1.1765 106.626 1.20011L108.148 4.8994C108.204 4.87641 108.24 4.86145 108.256 4.85495L106.74 1.15349ZM106.413 1.303C106.414 1.30243 106.415 1.30183 106.416 1.30121L108.356 4.79952C108.357 4.7985 108.359 4.7975 108.361 4.79651L106.413 1.303ZM106.415 1.30207C106.501 1.25424 106.568 1.22778 106.586 1.22096C106.594 1.21772 106.598 1.21642 106.586 1.22072C106.58 1.223 106.552 1.23283 106.527 1.24226L107.923 4.99077C107.923 4.99079 107.924 4.99027 107.929 4.98869C107.936 4.98618 107.936 4.98591 107.948 4.9817C107.964 4.97602 107.995 4.96477 108.03 4.95116C108.101 4.92359 108.22 4.87463 108.357 4.79867L106.415 1.30207ZM106.462 1.26772C105.168 1.80177 99.6743 4.08557 94.2612 6.59178C91.5585 7.84313 88.8446 9.16424 86.6743 10.3598C85.5916 10.9563 84.6112 11.5395 83.8233 12.0819C83.108 12.5744 82.3103 13.1912 81.844 13.8906L85.1722 16.1094C85.1478 16.146 85.1835 16.0852 85.3672 15.9252C85.5363 15.7779 85.775 15.5945 86.0916 15.3766C86.7252 14.9404 87.5772 14.4292 88.6044 13.8634C90.654 12.7343 93.2702 11.4585 95.9418 10.2216C101.277 7.75127 106.709 5.4929 107.988 4.9653L106.462 1.26772ZM108.268 1.14977C108.181 1.11455 107.902 1.00315 107.524 0.999806C107.313 0.997944 107.094 1.02932 106.878 1.1007C106.669 1.16965 106.512 1.25976 106.413 1.32387C106.365 1.35515 106.328 1.38255 106.305 1.39956C106.283 1.41585 106.266 1.42927 106.264 1.43085C106.251 1.44141 106.287 1.41237 106.326 1.38379C106.431 1.30818 106.568 1.22369 106.74 1.15346L108.256 4.85498C108.431 4.7834 108.571 4.69745 108.677 4.6205C108.717 4.59126 108.754 4.56157 108.741 4.57156C108.74 4.57284 108.723 4.58599 108.702 4.60202C108.679 4.61877 108.642 4.64593 108.594 4.67699C108.496 4.74067 108.34 4.83042 108.132 4.89912C107.916 4.97025 107.698 5.0015 107.488 4.99965C107.112 4.99633 106.835 4.88549 106.752 4.85163L108.268 1.14977Z" fill="#16181C" fill-opacity="0.8" mask="url(#path-3-outside-1)"/>
</g>
<mask id="path-5-outside-2" maskUnits="userSpaceOnUse" x="4" y="0" width="208" height="316" fill="black">
<rect fill="white" x="4" width="208" height="316"/>
<path fill-rule="evenodd" clip-rule="evenodd" d="M10.9562 30.5871C4.3361 105.593 4.37234 139.396 10.9184 184.386C10.9763 184.783 11.159 185.164 11.4312 185.46C27.8155 203.238 36.2743 210.043 49.0329 216.046C49.6396 216.332 50.0724 216.914 50.1766 217.577C55.7807 253.219 60.1246 263.97 69.8631 297.993C69.9566 298.32 70.1284 298.625 70.3824 298.851C75.1981 303.132 95.8423 314 107.508 314C119.174 314 139.818 303.132 144.634 298.851C144.888 298.625 145.06 298.32 145.153 297.993C154.892 263.97 159.236 253.219 164.84 217.577C164.944 216.914 165.377 216.332 165.983 216.046C178.742 210.043 187.201 203.238 203.585 185.46C203.857 185.164 204.04 184.783 204.098 184.386C210.644 139.396 210.68 105.593 204.06 30.5871C204.027 30.2096 203.885 29.8373 203.652 29.5389C198.056 22.3859 192.646 19.3301 187.068 15.9535C186.183 15.4175 185.028 15.6328 184.481 16.5112C181.602 21.1287 179.116 28.2146 178.604 29.7149C178.539 29.9061 178.507 30.0889 178.504 30.2909C178.455 33.468 178.037 62.012 178.491 83.2248C178.502 83.7269 178.324 84.211 177.989 84.5852C173.715 89.3596 170.819 91.5639 165.754 94.1277C165.279 94.368 164.724 94.4033 164.221 94.2291C155.781 91.3059 151.306 89.1549 145.506 84.4105C145.182 84.1455 144.952 83.782 144.847 83.3767L138.043 57.1346C138.02 57.045 138.004 56.9616 137.993 56.8696C137.707 54.4086 133.441 17.8988 131.508 15C129.518 12.0153 107.732 3.09159 107.51 3.0007C107.503 2.998 107.504 3.00151 107.498 3.00422V3.00422C107.481 3.01113 107.444 3.02645 107.387 3.04976C107.387 3.04996 107.386 3.05017 107.386 3.05037C107.335 3.0785 107.282 3.09536 107.225 3.11651C104.652 4.17816 85.3743 12.2008 83.5081 15C81.5756 17.8988 77.309 54.4086 77.0232 56.8696C77.0126 56.9616 76.9965 57.045 76.9732 57.1346L70.1697 83.3767C70.0646 83.782 69.8347 84.1455 69.5106 84.4105C63.71 89.1549 59.2356 91.3059 50.7952 94.2291C50.2922 94.4033 49.7376 94.368 49.2627 94.1277C44.1977 91.5639 41.3016 89.3596 37.0276 84.5852C36.6926 84.211 36.5144 83.7269 36.5252 83.2248C36.9789 62.012 36.5616 33.468 36.5127 30.2909C36.5096 30.0889 36.4772 29.9061 36.412 29.7149C35.9008 28.2146 33.4143 21.1287 30.5357 16.5112C29.9881 15.6328 28.8336 15.4175 27.9481 15.9535C22.3708 19.3301 16.9607 22.3859 11.3648 29.5389C11.1313 29.8373 10.9896 30.2096 10.9562 30.5871ZM88.5778 158.271C64.4152 153.383 50.5393 150.703 28.8444 142L26.2229 151.372C26.0802 151.883 26.1382 152.431 26.4419 152.865C28.627 155.99 34.9078 161.595 42.1185 163.864C59.4401 169.317 74.8296 172 90 172L88.5778 158.271ZM128.422 158.271C152.585 153.383 166.461 150.703 188.156 142L190.777 151.372C190.92 151.883 190.862 152.431 190.558 152.865C188.373 155.99 182.092 161.595 174.881 163.864C157.56 169.317 142.17 172 127 172L128.422 158.271Z"/>
</mask>
<path fill-rule="evenodd" clip-rule="evenodd" d="M10.9562 30.5871C4.3361 105.593 4.37234 139.396 10.9184 184.386C10.9763 184.783 11.159 185.164 11.4312 185.46C27.8155 203.238 36.2743 210.043 49.0329 216.046C49.6396 216.332 50.0724 216.914 50.1766 217.577C55.7807 253.219 60.1246 263.97 69.8631 297.993C69.9566 298.32 70.1284 298.625 70.3824 298.851C75.1981 303.132 95.8423 314 107.508 314C119.174 314 139.818 303.132 144.634 298.851C144.888 298.625 145.06 298.32 145.153 297.993C154.892 263.97 159.236 253.219 164.84 217.577C164.944 216.914 165.377 216.332 165.983 216.046C178.742 210.043 187.201 203.238 203.585 185.46C203.857 185.164 204.04 184.783 204.098 184.386C210.644 139.396 210.68 105.593 204.06 30.5871C204.027 30.2096 203.885 29.8373 203.652 29.5389C198.056 22.3859 192.646 19.3301 187.068 15.9535C186.183 15.4175 185.028 15.6328 184.481 16.5112C181.602 21.1287 179.116 28.2146 178.604 29.7149C178.539 29.9061 178.507 30.0889 178.504 30.2909C178.455 33.468 178.037 62.012 178.491 83.2248C178.502 83.7269 178.324 84.211 177.989 84.5852C173.715 89.3596 170.819 91.5639 165.754 94.1277C165.279 94.368 164.724 94.4033 164.221 94.2291C155.781 91.3059 151.306 89.1549 145.506 84.4105C145.182 84.1455 144.952 83.782 144.847 83.3767L138.043 57.1346C138.02 57.045 138.004 56.9616 137.993 56.8696C137.707 54.4086 133.441 17.8988 131.508 15C129.518 12.0153 107.732 3.09159 107.51 3.0007C107.503 2.998 107.504 3.00151 107.498 3.00422V3.00422C107.481 3.01113 107.444 3.02645 107.387 3.04976C107.387 3.04996 107.386 3.05017 107.386 3.05037C107.335 3.0785 107.282 3.09536 107.225 3.11651C104.652 4.17816 85.3743 12.2008 83.5081 15C81.5756 17.8988 77.309 54.4086 77.0232 56.8696C77.0126 56.9616 76.9965 57.045 76.9732 57.1346L70.1697 83.3767C70.0646 83.782 69.8347 84.1455 69.5106 84.4105C63.71 89.1549 59.2356 91.3059 50.7952 94.2291C50.2922 94.4033 49.7376 94.368 49.2627 94.1277C44.1977 91.5639 41.3016 89.3596 37.0276 84.5852C36.6926 84.211 36.5144 83.7269 36.5252 83.2248C36.9789 62.012 36.5616 33.468 36.5127 30.2909C36.5096 30.0889 36.4772 29.9061 36.412 29.7149C35.9008 28.2146 33.4143 21.1287 30.5357 16.5112C29.9881 15.6328 28.8336 15.4175 27.9481 15.9535C22.3708 19.3301 16.9607 22.3859 11.3648 29.5389C11.1313 29.8373 10.9896 30.2096 10.9562 30.5871ZM88.5778 158.271C64.4152 153.383 50.5393 150.703 28.8444 142L26.2229 151.372C26.0802 151.883 26.1382 152.431 26.4419 152.865C28.627 155.99 34.9078 161.595 42.1185 163.864C59.4401 169.317 74.8296 172 90 172L88.5778 158.271ZM128.422 158.271C152.585 153.383 166.461 150.703 188.156 142L190.777 151.372C190.92 151.883 190.862 152.431 190.558 152.865C188.373 155.99 182.092 161.595 174.881 163.864C157.56 169.317 142.17 172 127 172L128.422 158.271Z" fill="url(#paint5_diamond)"/>
<path d="M106.839 2.19327C106.325 2.39405 106.071 2.97389 106.271 3.48839C106.472 4.00288 107.052 4.2572 107.567 4.05642L106.839 2.19327ZM107.514 4.00297C108.067 4.00297 108.514 3.55526 108.514 3.00297C108.514 2.45069 108.067 2.00297 107.514 2.00297V4.00297ZM107.498 3.00422L107.64 3.99408L107.498 3.00422ZM107.387 3.04976L107.767 3.97457C107.803 3.95977 107.838 3.94289 107.872 3.924L107.387 3.04976ZM107.225 3.11651L107.574 4.05364C107.585 4.04959 107.596 4.04534 107.606 4.04091L107.225 3.11651ZM107.567 4.05642C107.568 4.05586 107.57 4.05498 107.574 4.05364L106.876 2.17938C106.865 2.18344 106.853 2.18809 106.839 2.19327L107.567 4.05642ZM107.872 3.924C107.89 3.91426 107.874 3.92399 107.848 3.93533C107.834 3.94189 107.809 3.95208 107.777 3.96246C107.746 3.9727 107.699 3.98563 107.64 3.99408L107.356 2.01436C107.207 2.03566 107.092 2.08253 107.032 2.10935C106.969 2.13763 106.916 2.16741 106.901 2.17551L107.872 3.924ZM107.64 3.99408C107.604 3.99917 107.562 4.00297 107.514 4.00297V2.00297C107.456 2.00297 107.402 2.00765 107.356 2.01436L107.64 3.99408ZM107.606 4.04091C107.671 4.01432 107.725 3.99214 107.767 3.97457L107.007 2.12494C106.963 2.14279 106.909 2.16525 106.843 2.19212L107.606 4.04091ZM10.9562 30.5871L8.96398 30.4112L8.96398 30.4112L10.9562 30.5871ZM10.9184 184.386L8.93927 184.674L8.93927 184.674L10.9184 184.386ZM11.4312 185.46L12.9019 184.104L12.9019 184.104L11.4312 185.46ZM49.0329 216.046L49.8845 214.237L49.8845 214.237L49.0329 216.046ZM50.1766 217.577L48.2009 217.887L48.2009 217.887L50.1766 217.577ZM69.8631 297.993L71.7858 297.443L71.7858 297.443L69.8631 297.993ZM70.3824 298.851L71.711 297.356L71.711 297.356L70.3824 298.851ZM11.3648 29.5389L12.94 30.7712L12.94 30.7712L11.3648 29.5389ZM27.9481 15.9535L28.9839 17.6644L28.9839 17.6644L27.9481 15.9535ZM30.5357 16.5112L32.2329 15.4531L32.2329 15.4531L30.5357 16.5112ZM36.412 29.7149L34.519 30.36L34.519 30.36L36.412 29.7149ZM36.5127 30.2909L34.5129 30.3217L34.5129 30.3217L36.5127 30.2909ZM36.5252 83.2248L38.5247 83.2675L38.5247 83.2675L36.5252 83.2248ZM37.0276 84.5852L35.5374 85.9191L35.5374 85.9191L37.0276 84.5852ZM49.2627 94.1277L50.166 92.3433L50.1659 92.3433L49.2627 94.1277ZM50.7952 94.2291L51.4497 96.119L51.4497 96.119L50.7952 94.2291ZM69.5106 84.4105L68.2444 82.8624L68.2444 82.8624L69.5106 84.4105ZM70.1697 83.3767L68.2337 82.8747L68.2337 82.8748L70.1697 83.3767ZM76.9732 57.1346L78.9092 57.6365L78.9092 57.6365L76.9732 57.1346ZM77.0232 56.8696L75.0366 56.6389L75.0366 56.639L77.0232 56.8696ZM83.5081 15L85.1722 16.1094L85.1722 16.1094L83.5081 15ZM204.06 30.5871L206.052 30.4112L206.052 30.4112L204.06 30.5871ZM204.098 184.386L206.077 184.674L206.077 184.674L204.098 184.386ZM203.585 185.46L202.114 184.104L202.114 184.104L203.585 185.46ZM165.983 216.046L165.132 214.237L165.132 214.237L165.983 216.046ZM164.84 217.577L166.816 217.887L166.816 217.887L164.84 217.577ZM145.153 297.993L143.231 297.443L143.231 297.443L145.153 297.993ZM144.634 298.851L143.305 297.356L143.305 297.356L144.634 298.851ZM203.652 29.5389L202.076 30.7712L202.076 30.7712L203.652 29.5389ZM187.068 15.9535L186.032 17.6644L186.032 17.6644L187.068 15.9535ZM184.481 16.5112L182.783 15.4531L182.783 15.4531L184.481 16.5112ZM178.604 29.7149L180.497 30.36L180.497 30.36L178.604 29.7149ZM178.504 30.2909L180.503 30.3217L180.503 30.3217L178.504 30.2909ZM178.491 83.2248L176.492 83.2675L176.492 83.2675L178.491 83.2248ZM177.989 84.5852L179.479 85.9191L179.479 85.9191L177.989 84.5852ZM165.754 94.1277L164.85 92.3433L164.85 92.3433L165.754 94.1277ZM164.221 94.2291L163.567 96.119L163.567 96.119L164.221 94.2291ZM145.506 84.4105L146.772 82.8624L146.772 82.8624L145.506 84.4105ZM144.847 83.3767L146.783 82.8748L146.783 82.8747L144.847 83.3767ZM138.043 57.1346L136.107 57.6365L136.107 57.6365L138.043 57.1346ZM137.993 56.8696L139.98 56.639L139.98 56.6389L137.993 56.8696ZM131.508 15L129.844 16.1094L129.844 16.1094L131.508 15ZM107.386 3.05037L106.416 1.30121L106.415 1.30207L107.386 3.05037ZM28.8444 142L29.589 140.144C29.0617 139.932 28.4692 139.955 27.9596 140.206C27.45 140.458 27.0714 140.914 26.9184 141.461L28.8444 142ZM88.5778 158.271L90.5671 158.065C90.477 157.195 89.8318 156.484 88.9743 156.311L88.5778 158.271ZM90 172V174C90.5663 174 91.106 173.76 91.4853 173.339C91.8645 172.919 92.0477 172.357 91.9894 171.794L90 172ZM42.1185 163.864L42.719 161.957L42.719 161.957L42.1185 163.864ZM26.4419 152.865L24.8028 154.011L24.8028 154.011L26.4419 152.865ZM26.2229 151.372L28.149 151.911L28.149 151.911L26.2229 151.372ZM188.156 142L190.082 141.461C189.929 140.914 189.55 140.458 189.04 140.206C188.531 139.955 187.938 139.932 187.411 140.144L188.156 142ZM128.422 158.271L128.026 156.311C127.168 156.484 126.523 157.195 126.433 158.065L128.422 158.271ZM127 172L125.011 171.794C124.952 172.357 125.135 172.919 125.515 173.339C125.894 173.76 126.434 174 127 174V172ZM174.881 163.864L174.281 161.957L174.281 161.957L174.881 163.864ZM190.558 152.865L192.197 154.011L192.197 154.011L190.558 152.865ZM190.777 151.372L188.851 151.911L188.851 151.911L190.777 151.372ZM107.387 3.04976L106.626 1.20011C106.553 1.23017 106.482 1.26452 106.413 1.303L107.387 3.04976ZM107.225 3.11651L106.527 1.24226C106.505 1.25037 106.484 1.25886 106.462 1.26772L107.225 3.11651ZM107.51 3.0007L106.752 4.85163L107.51 3.0007ZM8.96398 30.4112C2.33767 105.487 2.36124 139.464 8.93927 184.674L12.8976 184.098C6.38344 139.327 6.33453 105.699 12.9485 30.7629L8.96398 30.4112ZM9.96051 186.815C26.4186 204.673 35.0838 211.693 48.1813 217.856L49.8845 214.237C37.4648 208.392 29.2123 201.802 12.9019 184.104L9.96051 186.815ZM48.2009 217.887C53.829 253.682 58.2187 264.579 67.9403 298.543L71.7858 297.443C62.0306 263.361 57.7325 252.756 52.1523 217.266L48.2009 217.887ZM69.0537 300.346C71.6965 302.695 78.29 306.582 85.5552 309.854C92.8074 313.12 101.219 316 107.508 316V312C102.131 312 94.388 309.445 87.1977 306.207C80.0204 302.975 73.884 299.288 71.711 297.356L69.0537 300.346ZM12.94 30.7712C18.2842 23.94 23.395 21.048 28.9839 17.6644L26.9123 14.2426C21.3466 17.6121 15.6372 20.8318 9.78954 28.3065L12.94 30.7712ZM28.8385 17.5693C31.5791 21.9654 34.0018 28.8425 34.519 30.36L38.3051 29.0697C37.7997 27.5867 35.2495 20.2919 32.2329 15.4531L28.8385 17.5693ZM34.5129 30.3217C34.5619 33.5013 34.9785 62.0108 34.5256 83.182L38.5247 83.2675C38.9793 62.0131 38.5613 33.4348 38.5124 30.2601L34.5129 30.3217ZM35.5374 85.9191C39.9672 90.8676 43.0593 93.2294 48.3595 95.9121L50.1659 92.3433C45.3361 89.8985 42.636 87.8516 38.5177 83.2512L35.5374 85.9191ZM51.4497 96.119C60.0203 93.1507 64.7313 90.9033 70.7768 85.9587L68.2444 82.8624C62.6887 87.4064 58.4509 89.4611 50.1406 92.3392L51.4497 96.119ZM72.1057 83.8786L78.9092 57.6365L75.0372 56.6327L68.2337 82.8747L72.1057 83.8786ZM79.0099 57.1003C79.1523 55.8735 80.2885 46.1472 81.6296 36.3708C82.3005 31.4797 83.02 26.5959 83.6899 22.7633C84.0253 20.844 84.3439 19.2145 84.6329 17.9897C84.7778 17.3758 84.909 16.8904 85.0238 16.5335C85.1556 16.1241 85.217 16.0422 85.1722 16.1094L81.844 13.8906C81.5576 14.3202 81.3593 14.8632 81.2161 15.3083C81.056 15.8059 80.8971 16.4045 80.7398 17.0711C80.4245 18.4074 80.0904 20.125 79.7496 22.0746C79.067 25.9798 78.3397 30.9208 77.6667 35.8272C76.3199 45.6455 75.1799 55.4047 75.0366 56.6389L79.0099 57.1003ZM78.9092 57.6365C78.9536 57.4653 78.9877 57.2911 79.0099 57.1002L75.0366 56.639C75.0366 56.6391 75.0367 56.6381 75.037 56.6362C75.0373 56.6342 75.0376 56.6322 75.038 56.6302C75.0388 56.6258 75.039 56.6258 75.0372 56.6327L78.9092 57.6365ZM70.7768 85.9587C71.4357 85.4198 71.8961 84.6872 72.1057 83.8786L68.2337 82.8748C68.2336 82.8751 68.2337 82.8744 68.2349 82.8726C68.2361 82.8707 68.239 82.8668 68.2444 82.8624L70.7768 85.9587ZM48.3595 95.9121C49.3236 96.4001 50.4408 96.4683 51.4497 96.119L50.1406 92.3392C50.1433 92.3383 50.146 92.3379 50.149 92.3381C50.1522 92.3383 50.1582 92.3393 50.166 92.3433L48.3595 95.9121ZM34.5256 83.182C34.5041 84.1884 34.8626 85.1653 35.5374 85.9191L38.5177 83.2512C38.5191 83.2527 38.5214 83.2561 38.5231 83.2606C38.5247 83.265 38.5247 83.2678 38.5247 83.2675L34.5256 83.182ZM34.519 30.36C34.5201 30.3634 34.5199 30.3631 34.519 30.3596C34.518 30.356 34.5168 30.3507 34.5157 30.3441C34.5145 30.3375 34.5138 30.3316 34.5133 30.3268C34.5129 30.322 34.5129 30.3201 34.5129 30.3217L38.5124 30.2601C38.506 29.8447 38.4364 29.4548 38.3051 29.0697L34.519 30.36ZM67.9403 298.543C68.1177 299.163 68.465 299.823 69.0537 300.346L71.711 297.356C71.7523 297.393 71.7737 297.424 71.7823 297.439C71.7905 297.453 71.7893 297.455 71.7858 297.443L67.9403 298.543ZM48.1813 217.856C48.1766 217.854 48.1821 217.855 48.1904 217.866C48.1941 217.871 48.1969 217.876 48.1987 217.881C48.2005 217.885 48.2009 217.887 48.2009 217.887L52.1523 217.266C51.9462 215.955 51.0975 214.808 49.8845 214.237L48.1813 217.856ZM8.93927 184.674C9.0557 185.474 9.41767 186.226 9.96053 186.815L12.9019 184.104C12.9034 184.106 12.9033 184.106 12.9023 184.104C12.9013 184.103 12.9001 184.101 12.8989 184.098C12.8976 184.096 12.897 184.094 12.8968 184.093C12.8965 184.092 12.897 184.094 12.8976 184.098L8.93927 184.674ZM28.9839 17.6644C28.9946 17.6579 28.9901 17.666 28.964 17.6606C28.9496 17.6576 28.9267 17.6499 28.9005 17.6321C28.8725 17.6131 28.851 17.5894 28.8385 17.5693L32.2329 15.4531C31.0463 13.5497 28.6338 13.2004 26.9123 14.2426L28.9839 17.6644ZM12.9485 30.7629C12.9484 30.7634 12.9485 30.7625 12.949 30.7606C12.9494 30.7586 12.95 30.7569 12.9504 30.7558C12.9509 30.7546 12.9508 30.7551 12.9495 30.7573C12.9483 30.7595 12.9454 30.7643 12.94 30.7712L9.78954 28.3065C9.30706 28.9232 9.02971 29.6666 8.96398 30.4112L12.9485 30.7629ZM202.068 30.7629C208.682 105.699 208.633 139.327 202.119 184.098L206.077 184.674C212.655 139.464 212.679 105.487 206.052 30.4112L202.068 30.7629ZM202.114 184.104C185.804 201.802 177.552 208.392 165.132 214.237L166.835 217.856C179.933 211.693 188.598 204.673 205.056 186.815L202.114 184.104ZM162.864 217.266C157.284 252.756 152.986 263.361 143.231 297.443L147.076 298.543C156.798 264.579 161.187 253.682 166.816 217.887L162.864 217.266ZM143.305 297.356C141.132 299.288 134.996 302.975 127.819 306.207C120.628 309.445 112.885 312 107.508 312V316C113.797 316 122.209 313.12 129.461 309.854C136.726 306.582 143.32 302.695 145.963 300.346L143.305 297.356ZM205.227 28.3065C199.379 20.8318 193.67 17.6121 188.104 14.2426L186.032 17.6644C191.621 21.048 196.732 23.94 202.076 30.7712L205.227 28.3065ZM182.783 15.4531C179.767 20.2919 177.217 27.5867 176.711 29.0697L180.497 30.36C181.015 28.8425 183.437 21.9654 186.178 17.5693L182.783 15.4531ZM176.504 30.2601C176.455 33.4348 176.037 62.0131 176.492 83.2675L180.491 83.182C180.038 62.0108 180.454 33.5013 180.503 30.3217L176.504 30.2601ZM176.499 83.2512C172.38 87.8516 169.68 89.8985 164.85 92.3433L166.657 95.9121C171.957 93.2294 175.049 90.8676 179.479 85.9191L176.499 83.2512ZM164.876 92.3392C156.565 89.4611 152.328 87.4064 146.772 82.8624L144.24 85.9587C150.285 90.9033 154.996 93.1507 163.567 96.119L164.876 92.3392ZM146.783 82.8747L139.979 56.6327L136.107 57.6365L142.911 83.8786L146.783 82.8747ZM139.98 56.6389C139.836 55.4047 138.696 45.6455 137.35 35.8272C136.677 30.9208 135.949 25.9798 135.267 22.0746C134.926 20.125 134.592 18.4074 134.277 17.0711C134.119 16.4045 133.96 15.8059 133.8 15.3083C133.657 14.8632 133.459 14.3202 133.172 13.8906L129.844 16.1094C129.799 16.0422 129.861 16.1241 129.993 16.5335C130.107 16.8904 130.239 17.3758 130.383 17.9897C130.672 19.2145 130.991 20.844 131.326 22.7633C131.996 26.5959 132.716 31.4797 133.387 36.3708C134.728 46.1472 135.864 55.8735 136.006 57.1003L139.98 56.6389ZM133.172 13.8906C132.681 13.1541 131.813 12.4984 131.032 11.9724C130.169 11.3912 129.091 10.7627 127.902 10.1195C125.517 8.8302 122.554 7.4105 119.677 6.09611C113.917 3.46387 108.386 1.19821 108.268 1.14977L106.752 4.85163C106.856 4.89408 112.329 7.13572 118.015 9.73423C120.862 11.0352 123.731 12.4118 125.999 13.638C127.135 14.2525 128.087 14.8115 128.798 15.29C129.153 15.5292 129.423 15.7319 129.615 15.8962C129.825 16.0752 129.868 16.1457 129.844 16.1094L133.172 13.8906ZM139.979 56.6327C139.977 56.6258 139.978 56.6259 139.978 56.6303C139.979 56.6322 139.979 56.6343 139.979 56.6362C139.98 56.6381 139.98 56.6392 139.98 56.639L136.006 57.1002C136.029 57.291 136.063 57.4652 136.107 57.6365L139.979 56.6327ZM146.772 82.8624C146.777 82.8668 146.78 82.8707 146.781 82.8726C146.783 82.8744 146.783 82.8751 146.783 82.8748L142.911 83.8786C143.12 84.6872 143.581 85.4198 144.24 85.9587L146.772 82.8624ZM164.85 92.3433C164.858 92.3393 164.864 92.3383 164.867 92.3381C164.87 92.3379 164.873 92.3383 164.876 92.3392L163.567 96.119C164.576 96.4683 165.693 96.4001 166.657 95.9121L164.85 92.3433ZM176.492 83.2675C176.492 83.2678 176.492 83.265 176.493 83.2606C176.495 83.2561 176.497 83.2527 176.499 83.2512L179.479 85.9191C180.154 85.1653 180.512 84.1884 180.491 83.182L176.492 83.2675ZM176.711 29.0697C176.58 29.4548 176.51 29.8447 176.504 30.2601L180.503 30.3217C180.503 30.3201 180.503 30.322 180.503 30.3268C180.503 30.3316 180.502 30.3375 180.501 30.3441C180.5 30.3507 180.498 30.356 180.497 30.3596C180.496 30.3631 180.496 30.3634 180.497 30.36L176.711 29.0697ZM143.231 297.443C143.227 297.455 143.226 297.453 143.234 297.439C143.243 297.424 143.264 297.393 143.305 297.356L145.963 300.346C146.551 299.823 146.899 299.163 147.076 298.543L143.231 297.443ZM165.132 214.237C163.919 214.808 163.07 215.955 162.864 217.266L166.816 217.887C166.816 217.887 166.816 217.885 166.818 217.881C166.819 217.876 166.822 217.871 166.826 217.866C166.834 217.855 166.84 217.854 166.835 217.856L165.132 214.237ZM202.119 184.098C202.119 184.094 202.12 184.092 202.12 184.093C202.119 184.094 202.119 184.096 202.118 184.098C202.116 184.101 202.115 184.103 202.114 184.104C202.113 184.106 202.113 184.106 202.114 184.104L205.056 186.815C205.599 186.226 205.961 185.474 206.077 184.674L202.119 184.098ZM188.104 14.2426C186.383 13.2004 183.97 13.5497 182.783 15.4531L186.178 17.5693C186.165 17.5894 186.144 17.6131 186.116 17.6321C186.09 17.6499 186.067 17.6576 186.052 17.6606C186.026 17.666 186.022 17.6579 186.032 17.6644L188.104 14.2426ZM206.052 30.4112C205.987 29.6666 205.709 28.9232 205.227 28.3065L202.076 30.7712C202.071 30.7643 202.068 30.7595 202.067 30.7573C202.066 30.7551 202.066 30.7546 202.066 30.7558C202.066 30.7569 202.067 30.7586 202.067 30.7605C202.068 30.7625 202.068 30.7634 202.068 30.7629L206.052 30.4112ZM28.0998 143.856C49.9829 152.634 64.0222 155.345 88.1812 160.231L88.9743 156.311C64.8081 151.422 51.0958 148.771 29.589 140.144L28.0998 143.856ZM86.5884 158.477L88.0106 172.206L91.9894 171.794L90.5671 158.065L86.5884 158.477ZM90 170C75.0763 170 59.8921 167.363 42.719 161.957L41.518 165.772C58.9881 171.272 74.5829 174 90 174V170ZM42.719 161.957C39.3883 160.908 36.2179 159.068 33.6019 157.09C30.9714 155.101 29.0209 153.063 28.081 151.719L24.8028 154.011C26.0479 155.792 28.3304 158.119 31.1893 160.281C34.0626 162.453 37.638 164.551 41.518 165.772L42.719 161.957ZM28.149 151.911L30.7705 142.539L26.9184 141.461L24.2968 150.834L28.149 151.911ZM28.081 151.719C28.1243 151.781 28.1417 151.84 28.1468 151.878C28.1514 151.912 28.1458 151.923 28.149 151.911L24.2968 150.834C24.0207 151.821 24.1012 153.007 24.8028 154.011L28.081 151.719ZM187.411 140.144C165.904 148.771 152.192 151.422 128.026 156.311L128.819 160.231C152.978 155.345 167.017 152.634 188.9 143.856L187.411 140.144ZM126.433 158.065L125.011 171.794L128.989 172.206L130.412 158.477L126.433 158.065ZM127 174C142.417 174 158.012 171.272 175.482 165.772L174.281 161.957C157.108 167.363 141.924 170 127 170V174ZM175.482 165.772C179.362 164.551 182.937 162.453 185.811 160.281C188.67 158.119 190.952 155.792 192.197 154.011L188.919 151.719C187.979 153.063 186.029 155.101 183.398 157.09C180.782 159.068 177.612 160.908 174.281 161.957L175.482 165.772ZM192.703 150.834L190.082 141.461L186.229 142.539L188.851 151.911L192.703 150.834ZM192.197 154.011C192.899 153.007 192.979 151.821 192.703 150.834L188.851 151.911C188.854 151.923 188.849 151.912 188.853 151.878C188.858 151.84 188.876 151.781 188.919 151.719L192.197 154.011ZM106.74 1.15349C106.722 1.16081 106.684 1.1765 106.626 1.20011L108.148 4.8994C108.204 4.87641 108.24 4.86145 108.256 4.85495L106.74 1.15349ZM106.413 1.303C106.414 1.30243 106.415 1.30183 106.416 1.30121L108.356 4.79952C108.357 4.7985 108.359 4.7975 108.361 4.79651L106.413 1.303ZM106.415 1.30207C106.501 1.25424 106.568 1.22778 106.586 1.22096C106.594 1.21772 106.598 1.21642 106.586 1.22072C106.58 1.223 106.552 1.23283 106.527 1.24226L107.923 4.99077C107.923 4.99079 107.924 4.99027 107.929 4.98869C107.936 4.98618 107.936 4.98591 107.948 4.9817C107.964 4.97602 107.995 4.96477 108.03 4.95116C108.101 4.92359 108.22 4.87463 108.357 4.79867L106.415 1.30207ZM106.462 1.26772C105.168 1.80177 99.6743 4.08557 94.2612 6.59178C91.5585 7.84313 88.8446 9.16424 86.6743 10.3598C85.5916 10.9563 84.6112 11.5395 83.8233 12.0819C83.108 12.5744 82.3103 13.1912 81.844 13.8906L85.1722 16.1094C85.1478 16.146 85.1835 16.0852 85.3672 15.9252C85.5363 15.7779 85.775 15.5945 86.0916 15.3766C86.7252 14.9404 87.5772 14.4292 88.6044 13.8634C90.654 12.7343 93.2702 11.4585 95.9418 10.2216C101.277 7.75127 106.709 5.4929 107.988 4.9653L106.462 1.26772ZM108.268 1.14977C108.181 1.11455 107.902 1.00315 107.524 0.999806C107.313 0.997944 107.094 1.02932 106.878 1.1007C106.669 1.16965 106.512 1.25976 106.413 1.32387C106.365 1.35515 106.328 1.38255 106.305 1.39956C106.283 1.41585 106.266 1.42927 106.264 1.43085C106.251 1.44141 106.287 1.41237 106.326 1.38379C106.431 1.30818 106.568 1.22369 106.74 1.15346L108.256 4.85498C108.431 4.7834 108.571 4.69745 108.677 4.6205C108.717 4.59126 108.754 4.56157 108.741 4.57156C108.74 4.57284 108.723 4.58599 108.702 4.60202C108.679 4.61877 108.642 4.64593 108.594 4.67699C108.496 4.74067 108.34 4.83042 108.132 4.89912C107.916 4.97025 107.698 5.0015 107.488 4.99965C107.112 4.99633 106.835 4.88549 106.752 4.85163L108.268 1.14977Z" fill="#F5F5F5" fill-opacity="0.1" mask="url(#path-5-outside-2)"/>
<mask id="path-7-outside-3" maskUnits="userSpaceOnUse" x="4" y="-1" width="208" height="316" fill="black">
<rect fill="white" x="4" y="-1" width="208" height="316"/>
<path fill-rule="evenodd" clip-rule="evenodd" d="M10.9562 29.5871C4.3361 104.593 4.37234 138.396 10.9184 183.386C10.9763 183.783 11.159 184.164 11.4312 184.46C27.8155 202.238 36.2743 209.043 49.0329 215.046C49.6396 215.332 50.0724 215.914 50.1766 216.577C55.7807 252.219 60.1246 262.97 69.8631 296.993C69.9566 297.32 70.1284 297.625 70.3824 297.851C75.1981 302.132 95.8423 313 107.508 313C119.174 313 139.818 302.132 144.634 297.851C144.888 297.625 145.06 297.32 145.153 296.993C154.892 262.97 159.236 252.219 164.84 216.577C164.944 215.914 165.377 215.332 165.983 215.046C178.742 209.043 187.201 202.238 203.585 184.46C203.857 184.164 204.04 183.783 204.098 183.386C210.644 138.396 210.68 104.593 204.06 29.5871C204.027 29.2096 203.885 28.8373 203.652 28.5389C198.056 21.3859 192.646 18.3301 187.068 14.9535C186.183 14.4175 185.028 14.6328 184.481 15.5112C181.602 20.1287 179.116 27.2146 178.604 28.7149C178.539 28.9061 178.507 29.0889 178.504 29.2909C178.455 32.468 178.037 61.012 178.491 82.2248C178.502 82.7269 178.324 83.211 177.989 83.5852C173.715 88.3596 170.819 90.5639 165.754 93.1277C165.279 93.368 164.724 93.4033 164.221 93.2291C155.781 90.3059 151.306 88.1549 145.506 83.4105C145.182 83.1455 144.952 82.782 144.847 82.3767L138.043 56.1346C138.02 56.045 138.004 55.9616 137.993 55.8696C137.707 53.4086 133.441 16.8988 131.508 14C129.518 11.0153 107.732 2.09159 107.51 2.0007C107.503 1.998 107.504 2.00151 107.498 2.00422V2.00422C107.481 2.01113 107.444 2.02645 107.387 2.04976C107.387 2.04996 107.386 2.05017 107.386 2.05037C107.335 2.0785 107.282 2.09536 107.225 2.11651C104.652 3.17816 85.3743 11.2008 83.5081 14C81.5756 16.8988 77.309 53.4086 77.0232 55.8696C77.0126 55.9616 76.9965 56.045 76.9732 56.1346L70.1697 82.3767C70.0646 82.782 69.8347 83.1455 69.5106 83.4105C63.71 88.1549 59.2356 90.3059 50.7952 93.2291C50.2922 93.4033 49.7376 93.368 49.2627 93.1277C44.1977 90.5639 41.3016 88.3596 37.0276 83.5852C36.6926 83.211 36.5144 82.7269 36.5252 82.2248C36.9789 61.012 36.5616 32.468 36.5127 29.2909C36.5096 29.0889 36.4772 28.9061 36.412 28.7149C35.9008 27.2146 33.4143 20.1287 30.5357 15.5112C29.9881 14.6328 28.8336 14.4175 27.9481 14.9535C22.3708 18.3301 16.9607 21.3859 11.3648 28.5389C11.1313 28.8373 10.9896 29.2096 10.9562 29.5871ZM88.5778 157.271C64.4152 152.383 50.5393 149.703 28.8444 141L26.2229 150.372C26.0802 150.883 26.1382 151.431 26.4419 151.865C28.627 154.99 34.9078 160.595 42.1185 162.864C59.4401 168.317 74.8296 171 90 171L88.5778 157.271ZM128.422 157.271C152.585 152.383 166.461 149.703 188.156 141L190.777 150.372C190.92 150.883 190.862 151.431 190.558 151.865C188.373 154.99 182.092 160.595 174.881 162.864C157.56 168.317 142.17 171 127 171L128.422 157.271Z"/>
</mask>
<path fill-rule="evenodd" clip-rule="evenodd" d="M10.9562 29.5871C4.3361 104.593 4.37234 138.396 10.9184 183.386C10.9763 183.783 11.159 184.164 11.4312 184.46C27.8155 202.238 36.2743 209.043 49.0329 215.046C49.6396 215.332 50.0724 215.914 50.1766 216.577C55.7807 252.219 60.1246 262.97 69.8631 296.993C69.9566 297.32 70.1284 297.625 70.3824 297.851C75.1981 302.132 95.8423 313 107.508 313C119.174 313 139.818 302.132 144.634 297.851C144.888 297.625 145.06 297.32 145.153 296.993C154.892 262.97 159.236 252.219 164.84 216.577C164.944 215.914 165.377 215.332 165.983 215.046C178.742 209.043 187.201 202.238 203.585 184.46C203.857 184.164 204.04 183.783 204.098 183.386C210.644 138.396 210.68 104.593 204.06 29.5871C204.027 29.2096 203.885 28.8373 203.652 28.5389C198.056 21.3859 192.646 18.3301 187.068 14.9535C186.183 14.4175 185.028 14.6328 184.481 15.5112C181.602 20.1287 179.116 27.2146 178.604 28.7149C178.539 28.9061 178.507 29.0889 178.504 29.2909C178.455 32.468 178.037 61.012 178.491 82.2248C178.502 82.7269 178.324 83.211 177.989 83.5852C173.715 88.3596 170.819 90.5639 165.754 93.1277C165.279 93.368 164.724 93.4033 164.221 93.2291C155.781 90.3059 151.306 88.1549 145.506 83.4105C145.182 83.1455 144.952 82.782 144.847 82.3767L138.043 56.1346C138.02 56.045 138.004 55.9616 137.993 55.8696C137.707 53.4086 133.441 16.8988 131.508 14C129.518 11.0153 107.732 2.09159 107.51 2.0007C107.503 1.998 107.504 2.00151 107.498 2.00422V2.00422C107.481 2.01113 107.444 2.02645 107.387 2.04976C107.387 2.04996 107.386 2.05017 107.386 2.05037C107.335 2.0785 107.282 2.09536 107.225 2.11651C104.652 3.17816 85.3743 11.2008 83.5081 14C81.5756 16.8988 77.309 53.4086 77.0232 55.8696C77.0126 55.9616 76.9965 56.045 76.9732 56.1346L70.1697 82.3767C70.0646 82.782 69.8347 83.1455 69.5106 83.4105C63.71 88.1549 59.2356 90.3059 50.7952 93.2291C50.2922 93.4033 49.7376 93.368 49.2627 93.1277C44.1977 90.5639 41.3016 88.3596 37.0276 83.5852C36.6926 83.211 36.5144 82.7269 36.5252 82.2248C36.9789 61.012 36.5616 32.468 36.5127 29.2909C36.5096 29.0889 36.4772 28.9061 36.412 28.7149C35.9008 27.2146 33.4143 20.1287 30.5357 15.5112C29.9881 14.6328 28.8336 14.4175 27.9481 14.9535C22.3708 18.3301 16.9607 21.3859 11.3648 28.5389C11.1313 28.8373 10.9896 29.2096 10.9562 29.5871ZM88.5778 157.271C64.4152 152.383 50.5393 149.703 28.8444 141L26.2229 150.372C26.0802 150.883 26.1382 151.431 26.4419 151.865C28.627 154.99 34.9078 160.595 42.1185 162.864C59.4401 168.317 74.8296 171 90 171L88.5778 157.271ZM128.422 157.271C152.585 152.383 166.461 149.703 188.156 141L190.777 150.372C190.92 150.883 190.862 151.431 190.558 151.865C188.373 154.99 182.092 160.595 174.881 162.864C157.56 168.317 142.17 171 127 171L128.422 157.271Z" fill="url(#paint6_radial)"/>
<path d="M106.839 1.19327C106.325 1.39405 106.071 1.97389 106.271 2.48839C106.472 3.00288 107.052 3.2572 107.567 3.05642L106.839 1.19327ZM107.514 3.00297C108.067 3.00297 108.514 2.55526 108.514 2.00297C108.514 1.45069 108.067 1.00297 107.514 1.00297V3.00297ZM107.498 2.00422L107.64 2.99408L107.498 2.00422ZM107.387 2.04976L107.767 2.97457C107.803 2.95977 107.838 2.94289 107.872 2.924L107.387 2.04976ZM107.225 2.11651L107.574 3.05364C107.585 3.04959 107.596 3.04534 107.606 3.04091L107.225 2.11651ZM107.567 3.05642C107.568 3.05586 107.57 3.05498 107.574 3.05364L106.876 1.17938C106.865 1.18344 106.853 1.18809 106.839 1.19327L107.567 3.05642ZM107.872 2.924C107.89 2.91426 107.874 2.92399 107.848 2.93533C107.834 2.94189 107.809 2.95208 107.777 2.96246C107.746 2.9727 107.699 2.98563 107.64 2.99408L107.356 1.01436C107.207 1.03566 107.092 1.08253 107.032 1.10935C106.969 1.13763 106.916 1.16741 106.901 1.17551L107.872 2.924ZM107.64 2.99408C107.604 2.99917 107.562 3.00297 107.514 3.00297V1.00297C107.456 1.00297 107.402 1.00765 107.356 1.01436L107.64 2.99408ZM107.606 3.04091C107.671 3.01432 107.725 2.99214 107.767 2.97457L107.007 1.12494C106.963 1.14279 106.909 1.16525 106.843 1.19212L107.606 3.04091ZM10.9562 29.5871L8.96398 29.4112L8.96398 29.4112L10.9562 29.5871ZM10.9184 183.386L8.93927 183.674L8.93927 183.674L10.9184 183.386ZM11.4312 184.46L12.9019 183.104L12.9019 183.104L11.4312 184.46ZM49.0329 215.046L49.8845 213.237L49.8845 213.237L49.0329 215.046ZM50.1766 216.577L48.2009 216.887L48.2009 216.887L50.1766 216.577ZM69.8631 296.993L71.7858 296.443L71.7858 296.443L69.8631 296.993ZM70.3824 297.851L71.711 296.356L71.711 296.356L70.3824 297.851ZM11.3648 28.5389L12.94 29.7712L12.94 29.7712L11.3648 28.5389ZM27.9481 14.9535L28.9839 16.6644L28.9839 16.6644L27.9481 14.9535ZM30.5357 15.5112L32.2329 14.4531L32.2329 14.4531L30.5357 15.5112ZM36.412 28.7149L34.519 29.36L34.519 29.36L36.412 28.7149ZM36.5127 29.2909L34.5129 29.3217L34.5129 29.3217L36.5127 29.2909ZM36.5252 82.2248L38.5247 82.2675L38.5247 82.2675L36.5252 82.2248ZM37.0276 83.5852L35.5374 84.9191L35.5374 84.9191L37.0276 83.5852ZM49.2627 93.1277L50.166 91.3433L50.1659 91.3433L49.2627 93.1277ZM50.7952 93.2291L51.4497 95.119L51.4497 95.119L50.7952 93.2291ZM69.5106 83.4105L68.2444 81.8624L68.2444 81.8624L69.5106 83.4105ZM70.1697 82.3767L68.2337 81.8747L68.2337 81.8748L70.1697 82.3767ZM76.9732 56.1346L78.9092 56.6365L78.9092 56.6365L76.9732 56.1346ZM77.0232 55.8696L75.0366 55.6389L75.0366 55.639L77.0232 55.8696ZM83.5081 14L85.1722 15.1094L85.1722 15.1094L83.5081 14ZM204.06 29.5871L206.052 29.4112L206.052 29.4112L204.06 29.5871ZM204.098 183.386L206.077 183.674L206.077 183.674L204.098 183.386ZM203.585 184.46L202.114 183.104L202.114 183.104L203.585 184.46ZM165.983 215.046L165.132 213.237L165.132 213.237L165.983 215.046ZM164.84 216.577L166.816 216.887L166.816 216.887L164.84 216.577ZM145.153 296.993L143.231 296.443L143.231 296.443L145.153 296.993ZM144.634 297.851L143.305 296.356L143.305 296.356L144.634 297.851ZM203.652 28.5389L202.076 29.7712L202.076 29.7712L203.652 28.5389ZM187.068 14.9535L186.032 16.6644L186.032 16.6644L187.068 14.9535ZM184.481 15.5112L182.783 14.4531L182.783 14.4531L184.481 15.5112ZM178.604 28.7149L180.497 29.36L180.497 29.36L178.604 28.7149ZM178.504 29.2909L180.503 29.3217L180.503 29.3217L178.504 29.2909ZM178.491 82.2248L176.492 82.2675L176.492 82.2675L178.491 82.2248ZM177.989 83.5852L179.479 84.9191L179.479 84.9191L177.989 83.5852ZM165.754 93.1277L164.85 91.3433L164.85 91.3433L165.754 93.1277ZM164.221 93.2291L163.567 95.119L163.567 95.119L164.221 93.2291ZM145.506 83.4105L146.772 81.8624L146.772 81.8624L145.506 83.4105ZM144.847 82.3767L146.783 81.8748L146.783 81.8747L144.847 82.3767ZM138.043 56.1346L136.107 56.6365L136.107 56.6365L138.043 56.1346ZM137.993 55.8696L139.98 55.639L139.98 55.6389L137.993 55.8696ZM131.508 14L129.844 15.1094L129.844 15.1094L131.508 14ZM107.386 2.05037L106.416 0.301213L106.415 0.302071L107.386 2.05037ZM28.8444 141L29.589 139.144C29.0617 138.932 28.4692 138.955 27.9596 139.206C27.45 139.458 27.0714 139.914 26.9184 140.461L28.8444 141ZM88.5778 157.271L90.5671 157.065C90.477 156.195 89.8318 155.484 88.9743 155.311L88.5778 157.271ZM90 171V173C90.5663 173 91.106 172.76 91.4853 172.339C91.8645 171.919 92.0477 171.357 91.9894 170.794L90 171ZM42.1185 162.864L42.719 160.957L42.719 160.957L42.1185 162.864ZM26.4419 151.865L24.8028 153.011L24.8028 153.011L26.4419 151.865ZM26.2229 150.372L28.149 150.911L28.149 150.911L26.2229 150.372ZM188.156 141L190.082 140.461C189.929 139.914 189.55 139.458 189.04 139.206C188.531 138.955 187.938 138.932 187.411 139.144L188.156 141ZM128.422 157.271L128.026 155.311C127.168 155.484 126.523 156.195 126.433 157.065L128.422 157.271ZM127 171L125.011 170.794C124.952 171.357 125.135 171.919 125.515 172.339C125.894 172.76 126.434 173 127 173V171ZM174.881 162.864L174.281 160.957L174.281 160.957L174.881 162.864ZM190.558 151.865L192.197 153.011L192.197 153.011L190.558 151.865ZM190.777 150.372L188.851 150.911L188.851 150.911L190.777 150.372ZM107.387 2.04976L106.626 0.200114C106.553 0.230168 106.482 0.264525 106.413 0.303004L107.387 2.04976ZM107.225 2.11651L106.527 0.242258C106.505 0.250369 106.484 0.258859 106.462 0.267724L107.225 2.11651ZM107.51 2.0007L106.752 3.85163L107.51 2.0007ZM8.96398 29.4112C2.33767 104.487 2.36124 138.464 8.93927 183.674L12.8976 183.098C6.38344 138.327 6.33453 104.699 12.9485 29.7629L8.96398 29.4112ZM9.96051 185.815C26.4186 203.673 35.0838 210.693 48.1813 216.856L49.8845 213.237C37.4648 207.392 29.2123 200.802 12.9019 183.104L9.96051 185.815ZM48.2009 216.887C53.829 252.682 58.2187 263.579 67.9403 297.543L71.7858 296.443C62.0306 262.361 57.7325 251.756 52.1523 216.266L48.2009 216.887ZM69.0537 299.346C71.6965 301.695 78.29 305.582 85.5552 308.854C92.8074 312.12 101.219 315 107.508 315V311C102.131 311 94.388 308.445 87.1977 305.207C80.0204 301.975 73.884 298.288 71.711 296.356L69.0537 299.346ZM12.94 29.7712C18.2842 22.94 23.395 20.048 28.9839 16.6644L26.9123 13.2426C21.3466 16.6121 15.6372 19.8318 9.78954 27.3065L12.94 29.7712ZM28.8385 16.5693C31.5791 20.9654 34.0018 27.8425 34.519 29.36L38.3051 28.0697C37.7997 26.5867 35.2495 19.2919 32.2329 14.4531L28.8385 16.5693ZM34.5129 29.3217C34.5619 32.5013 34.9785 61.0108 34.5256 82.182L38.5247 82.2675C38.9793 61.0131 38.5613 32.4348 38.5124 29.2601L34.5129 29.3217ZM35.5374 84.9191C39.9672 89.8676 43.0593 92.2294 48.3595 94.9121L50.1659 91.3433C45.3361 88.8985 42.636 86.8516 38.5177 82.2512L35.5374 84.9191ZM51.4497 95.119C60.0203 92.1507 64.7313 89.9033 70.7768 84.9587L68.2444 81.8624C62.6887 86.4064 58.4509 88.4611 50.1406 91.3392L51.4497 95.119ZM72.1057 82.8786L78.9092 56.6365L75.0372 55.6327L68.2337 81.8747L72.1057 82.8786ZM79.0099 56.1003C79.1523 54.8735 80.2885 45.1472 81.6296 35.3708C82.3005 30.4797 83.02 25.5959 83.6899 21.7633C84.0253 19.844 84.3439 18.2145 84.6329 16.9897C84.7778 16.3758 84.909 15.8904 85.0238 15.5335C85.1556 15.1241 85.217 15.0422 85.1722 15.1094L81.844 12.8906C81.5576 13.3202 81.3593 13.8632 81.2161 14.3083C81.056 14.8059 80.8971 15.4045 80.7398 16.0711C80.4245 17.4074 80.0904 19.125 79.7496 21.0746C79.067 24.9798 78.3397 29.9208 77.6667 34.8272C76.3199 44.6455 75.1799 54.4047 75.0366 55.6389L79.0099 56.1003ZM78.9092 56.6365C78.9536 56.4653 78.9877 56.2911 79.0099 56.1002L75.0366 55.639C75.0366 55.6391 75.0367 55.6381 75.037 55.6362C75.0373 55.6342 75.0376 55.6322 75.038 55.6302C75.0388 55.6258 75.039 55.6258 75.0372 55.6327L78.9092 56.6365ZM70.7768 84.9587C71.4357 84.4198 71.8961 83.6872 72.1057 82.8786L68.2337 81.8748C68.2336 81.8751 68.2337 81.8744 68.2349 81.8726C68.2361 81.8707 68.239 81.8668 68.2444 81.8624L70.7768 84.9587ZM48.3595 94.9121C49.3236 95.4001 50.4408 95.4683 51.4497 95.119L50.1406 91.3392C50.1433 91.3383 50.146 91.3379 50.149 91.3381C50.1522 91.3383 50.1582 91.3393 50.166 91.3433L48.3595 94.9121ZM34.5256 82.182C34.5041 83.1884 34.8626 84.1653 35.5374 84.9191L38.5177 82.2512C38.5191 82.2527 38.5214 82.2561 38.5231 82.2606C38.5247 82.265 38.5247 82.2678 38.5247 82.2675L34.5256 82.182ZM34.519 29.36C34.5201 29.3634 34.5199 29.3631 34.519 29.3596C34.518 29.356 34.5168 29.3507 34.5157 29.3441C34.5145 29.3375 34.5138 29.3316 34.5133 29.3268C34.5129 29.322 34.5129 29.3201 34.5129 29.3217L38.5124 29.2601C38.506 28.8447 38.4364 28.4548 38.3051 28.0697L34.519 29.36ZM67.9403 297.543C68.1177 298.163 68.465 298.823 69.0537 299.346L71.711 296.356C71.7523 296.393 71.7737 296.424 71.7823 296.439C71.7905 296.453 71.7893 296.455 71.7858 296.443L67.9403 297.543ZM48.1813 216.856C48.1766 216.854 48.1821 216.855 48.1904 216.866C48.1941 216.871 48.1969 216.876 48.1987 216.881C48.2005 216.885 48.2009 216.887 48.2009 216.887L52.1523 216.266C51.9462 214.955 51.0975 213.808 49.8845 213.237L48.1813 216.856ZM8.93927 183.674C9.0557 184.474 9.41767 185.226 9.96053 185.815L12.9019 183.104C12.9034 183.106 12.9033 183.106 12.9023 183.104C12.9013 183.103 12.9001 183.101 12.8989 183.098C12.8976 183.096 12.897 183.094 12.8968 183.093C12.8965 183.092 12.897 183.094 12.8976 183.098L8.93927 183.674ZM28.9839 16.6644C28.9946 16.6579 28.9901 16.666 28.964 16.6606C28.9496 16.6576 28.9267 16.6499 28.9005 16.6321C28.8725 16.6131 28.851 16.5894 28.8385 16.5693L32.2329 14.4531C31.0463 12.5497 28.6338 12.2004 26.9123 13.2426L28.9839 16.6644ZM12.9485 29.7629C12.9484 29.7634 12.9485 29.7625 12.949 29.7606C12.9494 29.7586 12.95 29.7569 12.9504 29.7558C12.9509 29.7546 12.9508 29.7551 12.9495 29.7573C12.9483 29.7595 12.9454 29.7643 12.94 29.7712L9.78954 27.3065C9.30706 27.9232 9.02971 28.6666 8.96398 29.4112L12.9485 29.7629ZM202.068 29.7629C208.682 104.699 208.633 138.327 202.119 183.098L206.077 183.674C212.655 138.464 212.679 104.487 206.052 29.4112L202.068 29.7629ZM202.114 183.104C185.804 200.802 177.552 207.392 165.132 213.237L166.835 216.856C179.933 210.693 188.598 203.673 205.056 185.815L202.114 183.104ZM162.864 216.266C157.284 251.756 152.986 262.361 143.231 296.443L147.076 297.543C156.798 263.579 161.187 252.682 166.816 216.887L162.864 216.266ZM143.305 296.356C141.132 298.288 134.996 301.975 127.819 305.207C120.628 308.445 112.885 311 107.508 311V315C113.797 315 122.209 312.12 129.461 308.854C136.726 305.582 143.32 301.695 145.963 299.346L143.305 296.356ZM205.227 27.3065C199.379 19.8318 193.67 16.6121 188.104 13.2426L186.032 16.6644C191.621 20.048 196.732 22.94 202.076 29.7712L205.227 27.3065ZM182.783 14.4531C179.767 19.2919 177.217 26.5867 176.711 28.0697L180.497 29.36C181.015 27.8425 183.437 20.9654 186.178 16.5693L182.783 14.4531ZM176.504 29.2601C176.455 32.4348 176.037 61.0131 176.492 82.2675L180.491 82.182C180.038 61.0108 180.454 32.5013 180.503 29.3217L176.504 29.2601ZM176.499 82.2512C172.38 86.8516 169.68 88.8985 164.85 91.3433L166.657 94.9121C171.957 92.2294 175.049 89.8676 179.479 84.9191L176.499 82.2512ZM164.876 91.3392C156.565 88.4611 152.328 86.4064 146.772 81.8624L144.24 84.9587C150.285 89.9033 154.996 92.1507 163.567 95.119L164.876 91.3392ZM146.783 81.8747L139.979 55.6327L136.107 56.6365L142.911 82.8786L146.783 81.8747ZM139.98 55.6389C139.836 54.4047 138.696 44.6455 137.35 34.8272C136.677 29.9208 135.949 24.9798 135.267 21.0746C134.926 19.125 134.592 17.4074 134.277 16.0711C134.119 15.4045 133.96 14.8059 133.8 14.3083C133.657 13.8632 133.459 13.3202 133.172 12.8906L129.844 15.1094C129.799 15.0422 129.861 15.1241 129.993 15.5335C130.107 15.8904 130.239 16.3758 130.383 16.9897C130.672 18.2145 130.991 19.844 131.326 21.7633C131.996 25.5959 132.716 30.4797 133.387 35.3708C134.728 45.1472 135.864 54.8735 136.006 56.1003L139.98 55.6389ZM133.172 12.8906C132.681 12.1541 131.813 11.4984 131.032 10.9724C130.169 10.3912 129.091 9.76271 127.902 9.11948C125.517 7.8302 122.554 6.4105 119.677 5.09611C113.917 2.46387 108.386 0.19821 108.268 0.14977L106.752 3.85163C106.856 3.89408 112.329 6.13572 118.015 8.73423C120.862 10.0352 123.731 11.4118 125.999 12.638C127.135 13.2525 128.087 13.8115 128.798 14.29C129.153 14.5292 129.423 14.7319 129.615 14.8962C129.825 15.0752 129.868 15.1457 129.844 15.1094L133.172 12.8906ZM139.979 55.6327C139.977 55.6258 139.978 55.6259 139.978 55.6303C139.979 55.6322 139.979 55.6343 139.979 55.6362C139.98 55.6381 139.98 55.6392 139.98 55.639L136.006 56.1002C136.029 56.291 136.063 56.4652 136.107 56.6365L139.979 55.6327ZM146.772 81.8624C146.777 81.8668 146.78 81.8707 146.781 81.8726C146.783 81.8744 146.783 81.8751 146.783 81.8748L142.911 82.8786C143.12 83.6872 143.581 84.4198 144.24 84.9587L146.772 81.8624ZM164.85 91.3433C164.858 91.3393 164.864 91.3383 164.867 91.3381C164.87 91.3379 164.873 91.3383 164.876 91.3392L163.567 95.119C164.576 95.4683 165.693 95.4001 166.657 94.9121L164.85 91.3433ZM176.492 82.2675C176.492 82.2678 176.492 82.265 176.493 82.2606C176.495 82.2561 176.497 82.2527 176.499 82.2512L179.479 84.9191C180.154 84.1653 180.512 83.1884 180.491 82.182L176.492 82.2675ZM176.711 28.0697C176.58 28.4548 176.51 28.8447 176.504 29.2601L180.503 29.3217C180.503 29.3201 180.503 29.322 180.503 29.3268C180.503 29.3316 180.502 29.3375 180.501 29.3441C180.5 29.3507 180.498 29.356 180.497 29.3596C180.496 29.3631 180.496 29.3634 180.497 29.36L176.711 28.0697ZM143.231 296.443C143.227 296.455 143.226 296.453 143.234 296.439C143.243 296.424 143.264 296.393 143.305 296.356L145.963 299.346C146.551 298.823 146.899 298.163 147.076 297.543L143.231 296.443ZM165.132 213.237C163.919 213.808 163.07 214.955 162.864 216.266L166.816 216.887C166.816 216.887 166.816 216.885 166.818 216.881C166.819 216.876 166.822 216.871 166.826 216.866C166.834 216.855 166.84 216.854 166.835 216.856L165.132 213.237ZM202.119 183.098C202.119 183.094 202.12 183.092 202.12 183.093C202.119 183.094 202.119 183.096 202.118 183.098C202.116 183.101 202.115 183.103 202.114 183.104C202.113 183.106 202.113 183.106 202.114 183.104L205.056 185.815C205.599 185.226 205.961 184.474 206.077 183.674L202.119 183.098ZM188.104 13.2426C186.383 12.2004 183.97 12.5497 182.783 14.4531L186.178 16.5693C186.165 16.5894 186.144 16.6131 186.116 16.6321C186.09 16.6499 186.067 16.6576 186.052 16.6606C186.026 16.666 186.022 16.6579 186.032 16.6644L188.104 13.2426ZM206.052 29.4112C205.987 28.6666 205.709 27.9232 205.227 27.3065L202.076 29.7712C202.071 29.7643 202.068 29.7595 202.067 29.7573C202.066 29.7551 202.066 29.7546 202.066 29.7558C202.066 29.7569 202.067 29.7586 202.067 29.7605C202.068 29.7625 202.068 29.7634 202.068 29.7629L206.052 29.4112ZM28.0998 142.856C49.9829 151.634 64.0222 154.345 88.1812 159.231L88.9743 155.311C64.8081 150.422 51.0958 147.771 29.589 139.144L28.0998 142.856ZM86.5884 157.477L88.0106 171.206L91.9894 170.794L90.5671 157.065L86.5884 157.477ZM90 169C75.0763 169 59.8921 166.363 42.719 160.957L41.518 164.772C58.9881 170.272 74.5829 173 90 173V169ZM42.719 160.957C39.3883 159.908 36.2179 158.068 33.6019 156.09C30.9714 154.101 29.0209 152.063 28.081 150.719L24.8028 153.011C26.0479 154.792 28.3304 157.119 31.1893 159.281C34.0626 161.453 37.638 163.551 41.518 164.772L42.719 160.957ZM28.149 150.911L30.7705 141.539L26.9184 140.461L24.2968 149.834L28.149 150.911ZM28.081 150.719C28.1243 150.781 28.1417 150.84 28.1468 150.878C28.1514 150.912 28.1458 150.923 28.149 150.911L24.2968 149.834C24.0207 150.821 24.1012 152.007 24.8028 153.011L28.081 150.719ZM187.411 139.144C165.904 147.771 152.192 150.422 128.026 155.311L128.819 159.231C152.978 154.345 167.017 151.634 188.9 142.856L187.411 139.144ZM126.433 157.065L125.011 170.794L128.989 171.206L130.412 157.477L126.433 157.065ZM127 173C142.417 173 158.012 170.272 175.482 164.772L174.281 160.957C157.108 166.363 141.924 169 127 169V173ZM175.482 164.772C179.362 163.551 182.937 161.453 185.811 159.281C188.67 157.119 190.952 154.792 192.197 153.011L188.919 150.719C187.979 152.063 186.029 154.101 183.398 156.09C180.782 158.068 177.612 159.908 174.281 160.957L175.482 164.772ZM192.703 149.834L190.082 140.461L186.229 141.539L188.851 150.911L192.703 149.834ZM192.197 153.011C192.899 152.007 192.979 150.821 192.703 149.834L188.851 150.911C188.854 150.923 188.849 150.912 188.853 150.878C188.858 150.84 188.876 150.781 188.919 150.719L192.197 153.011ZM106.74 0.153491C106.722 0.160807 106.684 0.176499 106.626 0.200114L108.148 3.8994C108.204 3.87641 108.24 3.86145 108.256 3.85495L106.74 0.153491ZM106.413 0.303004C106.414 0.302428 106.415 0.30183 106.416 0.301214L108.356 3.79952C108.357 3.7985 108.359 3.7975 108.361 3.79651L106.413 0.303004ZM106.415 0.302071C106.501 0.254242 106.568 0.227781 106.586 0.22096C106.594 0.21772 106.598 0.216416 106.586 0.22072C106.58 0.223004 106.552 0.232828 106.527 0.242258L107.923 3.99077C107.923 3.99079 107.924 3.99027 107.929 3.98869C107.936 3.98618 107.936 3.98591 107.948 3.9817C107.964 3.97602 107.995 3.96477 108.03 3.95116C108.101 3.92359 108.22 3.87463 108.357 3.79867L106.415 0.302071ZM106.462 0.267724C105.168 0.801773 99.6743 3.08557 94.2612 5.59178C91.5585 6.84313 88.8446 8.16424 86.6743 9.35983C85.5916 9.95631 84.6112 10.5395 83.8233 11.0819C83.108 11.5744 82.3103 12.1912 81.844 12.8906L85.1722 15.1094C85.1478 15.146 85.1835 15.0852 85.3672 14.9252C85.5363 14.7779 85.775 14.5945 86.0916 14.3766C86.7252 13.9404 87.5772 13.4292 88.6044 12.8634C90.654 11.7343 93.2702 10.4585 95.9418 9.2216C101.277 6.75127 106.709 4.4929 107.988 3.9653L106.462 0.267724ZM108.268 0.14977C108.181 0.114554 107.902 0.00314728 107.524 -0.000193767C107.313 -0.00205585 107.094 0.0293249 106.878 0.100704C106.669 0.16965 106.512 0.259755 106.413 0.323871C106.365 0.355155 106.328 0.382551 106.305 0.39956C106.283 0.415852 106.266 0.429273 106.264 0.430849C106.251 0.441415 106.287 0.412372 106.326 0.383792C106.431 0.308183 106.568 0.223691 106.74 0.15346L108.256 3.85498C108.431 3.7834 108.571 3.69745 108.677 3.6205C108.717 3.59126 108.754 3.56157 108.741 3.57156C108.74 3.57284 108.723 3.58599 108.702 3.60202C108.679 3.61877 108.642 3.64593 108.594 3.67699C108.496 3.74067 108.34 3.83042 108.132 3.89912C107.916 3.97025 107.698 4.0015 107.488 3.99965C107.112 3.99633 106.835 3.88549 106.752 3.85163L108.268 0.14977Z" fill="#F5F5F5" fill-opacity="0.1" mask="url(#path-7-outside-3)"/>
<defs>
<filter id="filter0_i" x="26" y="144" width="164.703" height="34" filterUnits="userSpaceOnUse" color-interpolation-filters="sRGB">
<feFlood flood-opacity="0" result="BackgroundImageFix"/>
<feBlend mode="normal" in="SourceGraphic" in2="BackgroundImageFix" result="shape"/>
<feColorMatrix in="SourceAlpha" type="matrix" values="0 0 0 0 0 0 0 0 0 0 0 0 0 0 0 0 0 0 127 0" result="hardAlpha"/>
<feOffset dy="4"/>
<feGaussianBlur stdDeviation="2"/>
<feComposite in2="hardAlpha" operator="arithmetic" k2="-1" k3="1"/>
<feColorMatrix type="matrix" values="0 0 0 0 0 0 0 0 0 0 0 0 0 0 0 0 0 0 0.25 0"/>
<feBlend mode="normal" in2="shape" result="effect1_innerShadow"/>
</filter>
<filter id="filter1_di" x="0" y="-3.00024" width="215.016" height="327" filterUnits="userSpaceOnUse" color-interpolation-filters="sRGB">
<feFlood flood-opacity="0" result="BackgroundImageFix"/>
<feColorMatrix in="SourceAlpha" type="matrix" values="0 0 0 0 0 0 0 0 0 0 0 0 0 0 0 0 0 0 127 0"/>
<feOffset dy="4"/>
<feGaussianBlur stdDeviation="2"/>
<feColorMatrix type="matrix" values="0 0 0 0 0 0 0 0 0 0 0 0 0 0 0 0 0 0 0.25 0"/>
<feBlend mode="normal" in2="BackgroundImageFix" result="effect1_dropShadow"/>
<feBlend mode="normal" in="SourceGraphic" in2="effect1_dropShadow" result="shape"/>
<feColorMatrix in="SourceAlpha" type="matrix" values="0 0 0 0 0 0 0 0 0 0 0 0 0 0 0 0 0 0 127 0" result="hardAlpha"/>
<feOffset dy="-4"/>
<feGaussianBlur stdDeviation="3"/>
<feComposite in2="hardAlpha" operator="arithmetic" k2="-1" k3="1"/>
<feColorMatrix type="matrix" values="0 0 0 0 0 0 0 0 0 0 0 0 0 0 0 0 0 0 0.25 0"/>
<feBlend mode="normal" in2="shape" result="effect2_innerShadow"/>
</filter>
<linearGradient id="paint0_linear" x1="17.5" y1="144" x2="18" y2="266.5" gradientUnits="userSpaceOnUse">
<stop stop-color="#0F51BA"/>
<stop offset="0.239583" stop-color="#3268BE"/>
<stop offset="1" stop-color="#F5F5F5"/>
</linearGradient>
<linearGradient id="paint1_linear" x1="17.5" y1="144" x2="18" y2="266.5" gradientUnits="userSpaceOnUse">
<stop stop-color="#0F51BA"/>
<stop offset="0.239583" stop-color="#3268BE"/>
<stop offset="1" stop-color="#F5F5F5"/>
</linearGradient>
<linearGradient id="paint2_linear" x1="17.5" y1="144" x2="17.5" y2="209" gradientUnits="userSpaceOnUse">
<stop stop-color="#909295" stop-opacity="0.05"/>
<stop offset="1" stop-color="#F5F5F5" stop-opacity="0.15"/>
</linearGradient>
<linearGradient id="paint3_linear" x1="17.5" y1="144" x2="17.5" y2="209" gradientUnits="userSpaceOnUse">
<stop stop-color="#909295" stop-opacity="0.05"/>
<stop offset="1" stop-color="#F5F5F5" stop-opacity="0.15"/>
</linearGradient>
<radialGradient id="paint4_diamond" cx="0" cy="0" r="1" gradientUnits="userSpaceOnUse" gradientTransform="translate(107.508 158.5) rotate(-90.0031) scale(153.463 88.0627)">
<stop stop-color="#909295"/>
<stop offset="0.277004" stop-color="#6F7175"/>
<stop offset="0.579876" stop-color="#53565A"/>
<stop offset="1" stop-color="#37393D"/>
</radialGradient>
<radialGradient id="paint5_diamond" cx="0" cy="0" r="1" gradientUnits="userSpaceOnUse" gradientTransform="translate(107.508 158.5) rotate(-90.0031) scale(153.463 52.0409)">
<stop stop-color="#F5F5F5" stop-opacity="0.2"/>
<stop offset="1" stop-color="#E5E5E5" stop-opacity="0.02"/>
</radialGradient>
<radialGradient id="paint6_radial" cx="0" cy="0" r="1" gradientUnits="userSpaceOnUse" gradientTransform="translate(107.508 157.5) rotate(-89.7661) scale(120.501 84.9092)">
<stop stop-color="#F5F5F5" stop-opacity="0"/>
<stop offset="1" stop-color="#16181C" stop-opacity="0.25"/>
</radialGradient>
</defs>
</svg>
